G04 #@! TF.GenerationSoftware,KiCad,Pcbnew,(5.0.0)*
G04 #@! TF.CreationDate,2019-10-07T00:36:16+02:00*
G04 #@! TF.ProjectId,pizerospi,70697A65726F7370692E6B696361645F,rev?*
G04 #@! TF.SameCoordinates,Original*
G04 #@! TF.FileFunction,Copper,L2,Bot,Signal*
G04 #@! TF.FilePolarity,Positive*
%FSLAX46Y46*%
G04 Gerber Fmt 4.6, Leading zero omitted, Abs format (unit mm)*
G04 Created by KiCad (PCBNEW (5.0.0)) date 10/07/19 00:36:16*
%MOMM*%
%LPD*%
G01*
G04 APERTURE LIST*
G04 #@! TA.AperFunction,ComponentPad*
%ADD10O,1.700000X1.700000*%
G04 #@! TD*
G04 #@! TA.AperFunction,ComponentPad*
%ADD11R,1.700000X1.700000*%
G04 #@! TD*
G04 #@! TA.AperFunction,ComponentPad*
%ADD12C,3.000000*%
G04 #@! TD*
G04 #@! TA.AperFunction,ComponentPad*
%ADD13R,3.000000X3.000000*%
G04 #@! TD*
G04 #@! TA.AperFunction,ViaPad*
%ADD14C,0.800000*%
G04 #@! TD*
G04 #@! TA.AperFunction,Conductor*
%ADD15C,0.250000*%
G04 #@! TD*
G04 #@! TA.AperFunction,Conductor*
%ADD16C,0.500000*%
G04 #@! TD*
G04 #@! TA.AperFunction,Conductor*
%ADD17C,0.254000*%
G04 #@! TD*
G04 APERTURE END LIST*
D10*
G04 #@! TO.P,J1,10*
G04 #@! TO.N,PI_GND*
X61540000Y-38910000D03*
G04 #@! TO.P,J1,9*
G04 #@! TO.N,H75_MOSI*
X59000000Y-38910000D03*
G04 #@! TO.P,J1,8*
G04 #@! TO.N,PI_GND*
X61540000Y-36370000D03*
G04 #@! TO.P,J1,7*
G04 #@! TO.N,H75_SCK*
X59000000Y-36370000D03*
G04 #@! TO.P,J1,6*
G04 #@! TO.N,H75_SS*
X61540000Y-33830000D03*
G04 #@! TO.P,J1,5*
G04 #@! TO.N,H75_CLEAR*
X59000000Y-33830000D03*
G04 #@! TO.P,J1,4*
G04 #@! TO.N,H75_OE*
X61540000Y-31290000D03*
G04 #@! TO.P,J1,3*
G04 #@! TO.N,H75_SHIFT*
X59000000Y-31290000D03*
G04 #@! TO.P,J1,2*
G04 #@! TO.N,PI_5V*
X61540000Y-28750000D03*
D11*
G04 #@! TO.P,J1,1*
X59000000Y-28750000D03*
G04 #@! TD*
D10*
G04 #@! TO.P,J2,40*
G04 #@! TO.N,N/C*
X70010000Y-19210000D03*
G04 #@! TO.P,J2,39*
G04 #@! TO.N,PI_GND*
X70010000Y-21750000D03*
G04 #@! TO.P,J2,38*
G04 #@! TO.N,N/C*
X67470000Y-19210000D03*
G04 #@! TO.P,J2,37*
X67470000Y-21750000D03*
G04 #@! TO.P,J2,36*
X64930000Y-19210000D03*
G04 #@! TO.P,J2,35*
G04 #@! TO.N,PI_GPIO_19*
X64930000Y-21750000D03*
G04 #@! TO.P,J2,34*
G04 #@! TO.N,PI_GND*
X62390000Y-19210000D03*
G04 #@! TO.P,J2,33*
G04 #@! TO.N,PI_GPIO_13*
X62390000Y-21750000D03*
G04 #@! TO.P,J2,32*
G04 #@! TO.N,N/C*
X59850000Y-19210000D03*
G04 #@! TO.P,J2,31*
G04 #@! TO.N,PI_GPIO_06*
X59850000Y-21750000D03*
G04 #@! TO.P,J2,30*
G04 #@! TO.N,PI_GND*
X57310000Y-19210000D03*
G04 #@! TO.P,J2,29*
G04 #@! TO.N,PI_GPIO_05*
X57310000Y-21750000D03*
G04 #@! TO.P,J2,28*
G04 #@! TO.N,N/C*
X54770000Y-19210000D03*
G04 #@! TO.P,J2,27*
X54770000Y-21750000D03*
G04 #@! TO.P,J2,26*
X52230000Y-19210000D03*
G04 #@! TO.P,J2,25*
G04 #@! TO.N,PI_GND*
X52230000Y-21750000D03*
G04 #@! TO.P,J2,24*
G04 #@! TO.N,N/C*
X49690000Y-19210000D03*
G04 #@! TO.P,J2,23*
G04 #@! TO.N,PI_GPIO_11_SCLK*
X49690000Y-21750000D03*
G04 #@! TO.P,J2,22*
G04 #@! TO.N,N/C*
X47150000Y-19210000D03*
G04 #@! TO.P,J2,21*
X47150000Y-21750000D03*
G04 #@! TO.P,J2,20*
G04 #@! TO.N,PI_GND*
X44610000Y-19210000D03*
G04 #@! TO.P,J2,19*
G04 #@! TO.N,PI_GPIO_10_MOSI*
X44610000Y-21750000D03*
G04 #@! TO.P,J2,18*
G04 #@! TO.N,N/C*
X42070000Y-19210000D03*
G04 #@! TO.P,J2,17*
G04 #@! TO.N,PI_3V3*
X42070000Y-21750000D03*
G04 #@! TO.P,J2,16*
G04 #@! TO.N,N/C*
X39530000Y-19210000D03*
G04 #@! TO.P,J2,15*
X39530000Y-21750000D03*
G04 #@! TO.P,J2,14*
G04 #@! TO.N,PI_GND*
X36990000Y-19210000D03*
G04 #@! TO.P,J2,13*
G04 #@! TO.N,N/C*
X36990000Y-21750000D03*
G04 #@! TO.P,J2,12*
X34450000Y-19210000D03*
G04 #@! TO.P,J2,11*
X34450000Y-21750000D03*
G04 #@! TO.P,J2,10*
G04 #@! TO.N,PI_GPIO_15_RXD*
X31910000Y-19210000D03*
G04 #@! TO.P,J2,9*
G04 #@! TO.N,PI_GND*
X31910000Y-21750000D03*
G04 #@! TO.P,J2,8*
G04 #@! TO.N,PI_GPIO_14_TXD*
X29370000Y-19210000D03*
G04 #@! TO.P,J2,7*
G04 #@! TO.N,PI_GPIO_04*
X29370000Y-21750000D03*
G04 #@! TO.P,J2,6*
G04 #@! TO.N,PI_GND*
X26830000Y-19210000D03*
G04 #@! TO.P,J2,5*
G04 #@! TO.N,N/C*
X26830000Y-21750000D03*
G04 #@! TO.P,J2,4*
G04 #@! TO.N,PI_5V*
X24290000Y-19210000D03*
G04 #@! TO.P,J2,3*
G04 #@! TO.N,N/C*
X24290000Y-21750000D03*
G04 #@! TO.P,J2,2*
G04 #@! TO.N,PI_5V*
X21750000Y-19210000D03*
D11*
G04 #@! TO.P,J2,1*
G04 #@! TO.N,PI_3V3*
X21750000Y-21750000D03*
G04 #@! TD*
D12*
G04 #@! TO.P,J3,2*
G04 #@! TO.N,PI_GND*
X26580000Y-41500000D03*
D13*
G04 #@! TO.P,J3,1*
G04 #@! TO.N,PI_5V*
X21500000Y-41500000D03*
G04 #@! TD*
D10*
G04 #@! TO.P,J4,2*
G04 #@! TO.N,PI_GND*
X24575001Y-30115001D03*
D11*
G04 #@! TO.P,J4,1*
G04 #@! TO.N,PI_GPIO_04*
X24575001Y-27575001D03*
G04 #@! TD*
D10*
G04 #@! TO.P,J5,3*
G04 #@! TO.N,PI_GND*
X34000000Y-32580000D03*
G04 #@! TO.P,J5,2*
G04 #@! TO.N,PI_GPIO_15_RXD*
X34000000Y-30040000D03*
D11*
G04 #@! TO.P,J5,1*
G04 #@! TO.N,PI_GPIO_14_TXD*
X34000000Y-27500000D03*
G04 #@! TD*
D14*
G04 #@! TO.N,PI_GPIO_19*
X43655000Y-33845000D03*
G04 #@! TO.N,PI_GPIO_13*
X43675000Y-32575000D03*
G04 #@! TO.N,PI_GPIO_06*
X43695000Y-31305000D03*
G04 #@! TD*
D15*
G04 #@! TO.N,PI_GND*
X36140001Y-20059999D02*
X36990000Y-19210000D01*
X35625001Y-20574999D02*
X36140001Y-20059999D01*
X33085001Y-20574999D02*
X35625001Y-20574999D01*
X31910000Y-21750000D02*
X33085001Y-20574999D01*
D16*
G04 #@! TO.N,PI_5V*
X21750000Y-19210000D02*
X24290000Y-19210000D01*
X19757919Y-20000000D02*
X19757919Y-28757919D01*
X20547919Y-19210000D02*
X19757919Y-20000000D01*
X21750000Y-19210000D02*
X20547919Y-19210000D01*
X19757919Y-37757919D02*
X19757919Y-28757919D01*
X21500000Y-39500000D02*
X19757919Y-37757919D01*
X21500000Y-41500000D02*
X21500000Y-39500000D01*
X22500000Y-44500000D02*
X53500000Y-44500000D01*
X21500000Y-43500000D02*
X22500000Y-44500000D01*
X21500000Y-41500000D02*
X21500000Y-43500000D01*
X53500000Y-44500000D02*
X55000000Y-43000000D01*
X57650000Y-28750000D02*
X59000000Y-28750000D01*
X55000000Y-31400000D02*
X57650000Y-28750000D01*
X55000000Y-43000000D02*
X55000000Y-31400000D01*
D15*
G04 #@! TO.N,PI_GPIO_19*
X64930000Y-21750000D02*
X61680000Y-25000000D01*
X60680000Y-26000000D02*
X61680000Y-25000000D01*
X51500000Y-26000000D02*
X60680000Y-26000000D01*
X51500000Y-26000000D02*
X43655000Y-33845000D01*
G04 #@! TO.N,PI_GPIO_13*
X62390000Y-21750000D02*
X59640000Y-24500000D01*
X58890000Y-25250000D02*
X59640000Y-24500000D01*
X51000000Y-25250000D02*
X58890000Y-25250000D01*
X51000000Y-25250000D02*
X43675000Y-32575000D01*
G04 #@! TO.N,PI_GPIO_06*
X57600000Y-24000000D02*
X59850000Y-21750000D01*
X57100000Y-24500000D02*
X57600000Y-24000000D01*
X50500000Y-24500000D02*
X57100000Y-24500000D01*
X43695000Y-31305000D02*
X50500000Y-24500000D01*
D16*
G04 #@! TO.N,PI_3V3*
X42070000Y-21750000D02*
X39570000Y-24250000D01*
X21750000Y-23100000D02*
X21750000Y-21750000D01*
X22900000Y-24250000D02*
X21750000Y-23100000D01*
X39570000Y-24250000D02*
X22900000Y-24250000D01*
G04 #@! TD*
D17*
G04 #@! TO.N,PI_GND*
G36*
X73015000Y-46015000D02*
X18485000Y-46015000D01*
X18485000Y-20000000D01*
X18855582Y-20000000D01*
X18872919Y-20087161D01*
X18872920Y-28670754D01*
X18872919Y-37670758D01*
X18855582Y-37757919D01*
X18872919Y-37845080D01*
X18872919Y-37845083D01*
X18924267Y-38103228D01*
X19119870Y-38395968D01*
X19193766Y-38445344D01*
X20100981Y-39352560D01*
X20000000Y-39352560D01*
X19752235Y-39401843D01*
X19542191Y-39542191D01*
X19401843Y-39752235D01*
X19352560Y-40000000D01*
X19352560Y-43000000D01*
X19401843Y-43247765D01*
X19542191Y-43457809D01*
X19752235Y-43598157D01*
X20000000Y-43647440D01*
X20626990Y-43647440D01*
X20666348Y-43845309D01*
X20812576Y-44064154D01*
X20812578Y-44064156D01*
X20861952Y-44138049D01*
X20935845Y-44187423D01*
X21812577Y-45064156D01*
X21861951Y-45138049D01*
X21935844Y-45187423D01*
X21935845Y-45187424D01*
X22154690Y-45333652D01*
X22412835Y-45385000D01*
X22412839Y-45385000D01*
X22500000Y-45402337D01*
X22587161Y-45385000D01*
X53412839Y-45385000D01*
X53500000Y-45402337D01*
X53587161Y-45385000D01*
X53587165Y-45385000D01*
X53845310Y-45333652D01*
X54138049Y-45138049D01*
X54187425Y-45064153D01*
X55564156Y-43687423D01*
X55638049Y-43638049D01*
X55833652Y-43345310D01*
X55885000Y-43087165D01*
X55885000Y-43087161D01*
X55902337Y-43000001D01*
X55885000Y-42912841D01*
X55885000Y-31766578D01*
X57652769Y-29998810D01*
X57692191Y-30057809D01*
X57902235Y-30198157D01*
X57947619Y-30207184D01*
X57929375Y-30219375D01*
X57601161Y-30710582D01*
X57485908Y-31290000D01*
X57601161Y-31869418D01*
X57929375Y-32360625D01*
X58227761Y-32560000D01*
X57929375Y-32759375D01*
X57601161Y-33250582D01*
X57485908Y-33830000D01*
X57601161Y-34409418D01*
X57929375Y-34900625D01*
X58227761Y-35100000D01*
X57929375Y-35299375D01*
X57601161Y-35790582D01*
X57485908Y-36370000D01*
X57601161Y-36949418D01*
X57929375Y-37440625D01*
X58227761Y-37640000D01*
X57929375Y-37839375D01*
X57601161Y-38330582D01*
X57485908Y-38910000D01*
X57601161Y-39489418D01*
X57929375Y-39980625D01*
X58420582Y-40308839D01*
X58853744Y-40395000D01*
X59146256Y-40395000D01*
X59579418Y-40308839D01*
X60070625Y-39980625D01*
X60271353Y-39680214D01*
X60658642Y-40105183D01*
X61183108Y-40351486D01*
X61413000Y-40230819D01*
X61413000Y-39037000D01*
X61667000Y-39037000D01*
X61667000Y-40230819D01*
X61896892Y-40351486D01*
X62421358Y-40105183D01*
X62811645Y-39676924D01*
X62981476Y-39266890D01*
X62860155Y-39037000D01*
X61667000Y-39037000D01*
X61413000Y-39037000D01*
X61393000Y-39037000D01*
X61393000Y-38783000D01*
X61413000Y-38783000D01*
X61413000Y-36497000D01*
X61667000Y-36497000D01*
X61667000Y-38783000D01*
X62860155Y-38783000D01*
X62981476Y-38553110D01*
X62811645Y-38143076D01*
X62421358Y-37714817D01*
X62262046Y-37640000D01*
X62421358Y-37565183D01*
X62811645Y-37136924D01*
X62981476Y-36726890D01*
X62860155Y-36497000D01*
X61667000Y-36497000D01*
X61413000Y-36497000D01*
X61393000Y-36497000D01*
X61393000Y-36243000D01*
X61413000Y-36243000D01*
X61413000Y-36223000D01*
X61667000Y-36223000D01*
X61667000Y-36243000D01*
X62860155Y-36243000D01*
X62981476Y-36013110D01*
X62811645Y-35603076D01*
X62421358Y-35174817D01*
X62291522Y-35113843D01*
X62610625Y-34900625D01*
X62938839Y-34409418D01*
X63054092Y-33830000D01*
X62938839Y-33250582D01*
X62610625Y-32759375D01*
X62312239Y-32560000D01*
X62610625Y-32360625D01*
X62938839Y-31869418D01*
X63054092Y-31290000D01*
X62938839Y-30710582D01*
X62610625Y-30219375D01*
X62312239Y-30020000D01*
X62610625Y-29820625D01*
X62938839Y-29329418D01*
X63054092Y-28750000D01*
X62938839Y-28170582D01*
X62610625Y-27679375D01*
X62119418Y-27351161D01*
X61686256Y-27265000D01*
X61393744Y-27265000D01*
X60960582Y-27351161D01*
X60469375Y-27679375D01*
X60457184Y-27697619D01*
X60448157Y-27652235D01*
X60307809Y-27442191D01*
X60097765Y-27301843D01*
X59850000Y-27252560D01*
X58150000Y-27252560D01*
X57902235Y-27301843D01*
X57692191Y-27442191D01*
X57551843Y-27652235D01*
X57507326Y-27876041D01*
X57304690Y-27916348D01*
X57085845Y-28062576D01*
X57085844Y-28062577D01*
X57011951Y-28111951D01*
X56962577Y-28185844D01*
X54435845Y-30712577D01*
X54361952Y-30761951D01*
X54312578Y-30835844D01*
X54312576Y-30835846D01*
X54166348Y-31054691D01*
X54097663Y-31400000D01*
X54115001Y-31487165D01*
X54115000Y-42633421D01*
X53133422Y-43615000D01*
X27073143Y-43615000D01*
X27754582Y-43332739D01*
X27914365Y-43013970D01*
X26580000Y-41679605D01*
X25245635Y-43013970D01*
X25405418Y-43332739D01*
X26125466Y-43615000D01*
X23163089Y-43615000D01*
X23247765Y-43598157D01*
X23457809Y-43457809D01*
X23598157Y-43247765D01*
X23647440Y-43000000D01*
X23647440Y-41116187D01*
X24437277Y-41116187D01*
X24453503Y-41965387D01*
X24747261Y-42674582D01*
X25066030Y-42834365D01*
X26400395Y-41500000D01*
X26759605Y-41500000D01*
X28093970Y-42834365D01*
X28412739Y-42674582D01*
X28722723Y-41883813D01*
X28706497Y-41034613D01*
X28412739Y-40325418D01*
X28093970Y-40165635D01*
X26759605Y-41500000D01*
X26400395Y-41500000D01*
X25066030Y-40165635D01*
X24747261Y-40325418D01*
X24437277Y-41116187D01*
X23647440Y-41116187D01*
X23647440Y-40000000D01*
X23644662Y-39986030D01*
X25245635Y-39986030D01*
X26580000Y-41320395D01*
X27914365Y-39986030D01*
X27754582Y-39667261D01*
X26963813Y-39357277D01*
X26114613Y-39373503D01*
X25405418Y-39667261D01*
X25245635Y-39986030D01*
X23644662Y-39986030D01*
X23598157Y-39752235D01*
X23457809Y-39542191D01*
X23247765Y-39401843D01*
X23000000Y-39352560D01*
X22373011Y-39352560D01*
X22333652Y-39154690D01*
X22138049Y-38861951D01*
X22064156Y-38812577D01*
X20642919Y-37391341D01*
X20642919Y-32936890D01*
X32558524Y-32936890D01*
X32728355Y-33346924D01*
X33118642Y-33775183D01*
X33643108Y-34021486D01*
X33873000Y-33900819D01*
X33873000Y-32707000D01*
X34127000Y-32707000D01*
X34127000Y-33900819D01*
X34356892Y-34021486D01*
X34881358Y-33775183D01*
X35271645Y-33346924D01*
X35441476Y-32936890D01*
X35320155Y-32707000D01*
X34127000Y-32707000D01*
X33873000Y-32707000D01*
X32679845Y-32707000D01*
X32558524Y-32936890D01*
X20642919Y-32936890D01*
X20642919Y-30471891D01*
X23133525Y-30471891D01*
X23303356Y-30881925D01*
X23693643Y-31310184D01*
X24218109Y-31556487D01*
X24448001Y-31435820D01*
X24448001Y-30242001D01*
X24702001Y-30242001D01*
X24702001Y-31435820D01*
X24931893Y-31556487D01*
X25456359Y-31310184D01*
X25846646Y-30881925D01*
X26016477Y-30471891D01*
X25895156Y-30242001D01*
X24702001Y-30242001D01*
X24448001Y-30242001D01*
X23254846Y-30242001D01*
X23133525Y-30471891D01*
X20642919Y-30471891D01*
X20642919Y-30040000D01*
X32485908Y-30040000D01*
X32601161Y-30619418D01*
X32929375Y-31110625D01*
X33248478Y-31323843D01*
X33118642Y-31384817D01*
X32728355Y-31813076D01*
X32558524Y-32223110D01*
X32679845Y-32453000D01*
X33873000Y-32453000D01*
X33873000Y-32433000D01*
X34127000Y-32433000D01*
X34127000Y-32453000D01*
X35320155Y-32453000D01*
X35441476Y-32223110D01*
X35271645Y-31813076D01*
X34881358Y-31384817D01*
X34751522Y-31323843D01*
X35070625Y-31110625D01*
X35398839Y-30619418D01*
X35514092Y-30040000D01*
X35398839Y-29460582D01*
X35070625Y-28969375D01*
X35052381Y-28957184D01*
X35097765Y-28948157D01*
X35307809Y-28807809D01*
X35448157Y-28597765D01*
X35497440Y-28350000D01*
X35497440Y-26650000D01*
X35448157Y-26402235D01*
X35307809Y-26192191D01*
X35097765Y-26051843D01*
X34850000Y-26002560D01*
X33150000Y-26002560D01*
X32902235Y-26051843D01*
X32692191Y-26192191D01*
X32551843Y-26402235D01*
X32502560Y-26650000D01*
X32502560Y-28350000D01*
X32551843Y-28597765D01*
X32692191Y-28807809D01*
X32902235Y-28948157D01*
X32947619Y-28957184D01*
X32929375Y-28969375D01*
X32601161Y-29460582D01*
X32485908Y-30040000D01*
X20642919Y-30040000D01*
X20642919Y-26725001D01*
X23077561Y-26725001D01*
X23077561Y-28425001D01*
X23126844Y-28672766D01*
X23267192Y-28882810D01*
X23477236Y-29023158D01*
X23580709Y-29043740D01*
X23303356Y-29348077D01*
X23133525Y-29758111D01*
X23254846Y-29988001D01*
X24448001Y-29988001D01*
X24448001Y-29968001D01*
X24702001Y-29968001D01*
X24702001Y-29988001D01*
X25895156Y-29988001D01*
X26016477Y-29758111D01*
X25846646Y-29348077D01*
X25569293Y-29043740D01*
X25672766Y-29023158D01*
X25882810Y-28882810D01*
X26023158Y-28672766D01*
X26072441Y-28425001D01*
X26072441Y-26725001D01*
X26023158Y-26477236D01*
X25882810Y-26267192D01*
X25672766Y-26126844D01*
X25425001Y-26077561D01*
X23725001Y-26077561D01*
X23477236Y-26126844D01*
X23267192Y-26267192D01*
X23126844Y-26477236D01*
X23077561Y-26725001D01*
X20642919Y-26725001D01*
X20642919Y-23191932D01*
X20652235Y-23198157D01*
X20876042Y-23242674D01*
X20916348Y-23445309D01*
X21111951Y-23738049D01*
X21185847Y-23787425D01*
X22212577Y-24814156D01*
X22261951Y-24888049D01*
X22335844Y-24937423D01*
X22335845Y-24937424D01*
X22501227Y-25047929D01*
X22554690Y-25083652D01*
X22812835Y-25135000D01*
X22812839Y-25135000D01*
X22900000Y-25152337D01*
X22987161Y-25135000D01*
X39482839Y-25135000D01*
X39570000Y-25152337D01*
X39657161Y-25135000D01*
X39657165Y-25135000D01*
X39915310Y-25083652D01*
X40208049Y-24888049D01*
X40257425Y-24814153D01*
X41851040Y-23220538D01*
X41923744Y-23235000D01*
X42216256Y-23235000D01*
X42649418Y-23148839D01*
X43140625Y-22820625D01*
X43340000Y-22522239D01*
X43539375Y-22820625D01*
X44030582Y-23148839D01*
X44463744Y-23235000D01*
X44756256Y-23235000D01*
X45189418Y-23148839D01*
X45680625Y-22820625D01*
X45880000Y-22522239D01*
X46079375Y-22820625D01*
X46570582Y-23148839D01*
X47003744Y-23235000D01*
X47296256Y-23235000D01*
X47729418Y-23148839D01*
X48220625Y-22820625D01*
X48420000Y-22522239D01*
X48619375Y-22820625D01*
X49110582Y-23148839D01*
X49543744Y-23235000D01*
X49836256Y-23235000D01*
X50269418Y-23148839D01*
X50760625Y-22820625D01*
X50973843Y-22501522D01*
X51034817Y-22631358D01*
X51463076Y-23021645D01*
X51873110Y-23191476D01*
X52103000Y-23070155D01*
X52103000Y-21877000D01*
X52083000Y-21877000D01*
X52083000Y-21623000D01*
X52103000Y-21623000D01*
X52103000Y-21603000D01*
X52357000Y-21603000D01*
X52357000Y-21623000D01*
X52377000Y-21623000D01*
X52377000Y-21877000D01*
X52357000Y-21877000D01*
X52357000Y-23070155D01*
X52586890Y-23191476D01*
X52996924Y-23021645D01*
X53425183Y-22631358D01*
X53486157Y-22501522D01*
X53699375Y-22820625D01*
X54190582Y-23148839D01*
X54623744Y-23235000D01*
X54916256Y-23235000D01*
X55349418Y-23148839D01*
X55840625Y-22820625D01*
X56040000Y-22522239D01*
X56239375Y-22820625D01*
X56730582Y-23148839D01*
X57163744Y-23235000D01*
X57290199Y-23235000D01*
X57115530Y-23409669D01*
X57115527Y-23409671D01*
X56785199Y-23740000D01*
X50574846Y-23740000D01*
X50499999Y-23725112D01*
X50425152Y-23740000D01*
X50425148Y-23740000D01*
X50203463Y-23784096D01*
X50203461Y-23784097D01*
X50203462Y-23784097D01*
X50015526Y-23909671D01*
X50015524Y-23909673D01*
X49952071Y-23952071D01*
X49909673Y-24015524D01*
X43655199Y-30270000D01*
X43489126Y-30270000D01*
X43108720Y-30427569D01*
X42817569Y-30718720D01*
X42660000Y-31099126D01*
X42660000Y-31510874D01*
X42817569Y-31891280D01*
X42856289Y-31930000D01*
X42797569Y-31988720D01*
X42640000Y-32369126D01*
X42640000Y-32780874D01*
X42797569Y-33161280D01*
X42836289Y-33200000D01*
X42777569Y-33258720D01*
X42620000Y-33639126D01*
X42620000Y-34050874D01*
X42777569Y-34431280D01*
X43068720Y-34722431D01*
X43449126Y-34880000D01*
X43860874Y-34880000D01*
X44241280Y-34722431D01*
X44532431Y-34431280D01*
X44690000Y-34050874D01*
X44690000Y-33884801D01*
X51814803Y-26760000D01*
X60605153Y-26760000D01*
X60680000Y-26774888D01*
X60754847Y-26760000D01*
X60754852Y-26760000D01*
X60976537Y-26715904D01*
X61227929Y-26547929D01*
X61270331Y-26484470D01*
X62270329Y-25484473D01*
X62270331Y-25484470D01*
X64563592Y-23191209D01*
X64783744Y-23235000D01*
X65076256Y-23235000D01*
X65509418Y-23148839D01*
X66000625Y-22820625D01*
X66200000Y-22522239D01*
X66399375Y-22820625D01*
X66890582Y-23148839D01*
X67323744Y-23235000D01*
X67616256Y-23235000D01*
X68049418Y-23148839D01*
X68540625Y-22820625D01*
X68753843Y-22501522D01*
X68814817Y-22631358D01*
X69243076Y-23021645D01*
X69653110Y-23191476D01*
X69883000Y-23070155D01*
X69883000Y-21877000D01*
X70137000Y-21877000D01*
X70137000Y-23070155D01*
X70366890Y-23191476D01*
X70776924Y-23021645D01*
X71205183Y-22631358D01*
X71451486Y-22106892D01*
X71330819Y-21877000D01*
X70137000Y-21877000D01*
X69883000Y-21877000D01*
X69863000Y-21877000D01*
X69863000Y-21623000D01*
X69883000Y-21623000D01*
X69883000Y-21603000D01*
X70137000Y-21603000D01*
X70137000Y-21623000D01*
X71330819Y-21623000D01*
X71451486Y-21393108D01*
X71205183Y-20868642D01*
X70780214Y-20481353D01*
X71080625Y-20280625D01*
X71408839Y-19789418D01*
X71524092Y-19210000D01*
X71408839Y-18630582D01*
X71080625Y-18139375D01*
X70589418Y-17811161D01*
X70156256Y-17725000D01*
X69863744Y-17725000D01*
X69430582Y-17811161D01*
X68939375Y-18139375D01*
X68740000Y-18437761D01*
X68540625Y-18139375D01*
X68049418Y-17811161D01*
X67616256Y-17725000D01*
X67323744Y-17725000D01*
X66890582Y-17811161D01*
X66399375Y-18139375D01*
X66200000Y-18437761D01*
X66000625Y-18139375D01*
X65509418Y-17811161D01*
X65076256Y-17725000D01*
X64783744Y-17725000D01*
X64350582Y-17811161D01*
X63859375Y-18139375D01*
X63646157Y-18458478D01*
X63585183Y-18328642D01*
X63156924Y-17938355D01*
X62746890Y-17768524D01*
X62517000Y-17889845D01*
X62517000Y-19083000D01*
X62537000Y-19083000D01*
X62537000Y-19337000D01*
X62517000Y-19337000D01*
X62517000Y-19357000D01*
X62263000Y-19357000D01*
X62263000Y-19337000D01*
X62243000Y-19337000D01*
X62243000Y-19083000D01*
X62263000Y-19083000D01*
X62263000Y-17889845D01*
X62033110Y-17768524D01*
X61623076Y-17938355D01*
X61194817Y-18328642D01*
X61133843Y-18458478D01*
X60920625Y-18139375D01*
X60429418Y-17811161D01*
X59996256Y-17725000D01*
X59703744Y-17725000D01*
X59270582Y-17811161D01*
X58779375Y-18139375D01*
X58566157Y-18458478D01*
X58505183Y-18328642D01*
X58076924Y-17938355D01*
X57666890Y-17768524D01*
X57437000Y-17889845D01*
X57437000Y-19083000D01*
X57457000Y-19083000D01*
X57457000Y-19337000D01*
X57437000Y-19337000D01*
X57437000Y-19357000D01*
X57183000Y-19357000D01*
X57183000Y-19337000D01*
X57163000Y-19337000D01*
X57163000Y-19083000D01*
X57183000Y-19083000D01*
X57183000Y-17889845D01*
X56953110Y-17768524D01*
X56543076Y-17938355D01*
X56114817Y-18328642D01*
X56053843Y-18458478D01*
X55840625Y-18139375D01*
X55349418Y-17811161D01*
X54916256Y-17725000D01*
X54623744Y-17725000D01*
X54190582Y-17811161D01*
X53699375Y-18139375D01*
X53500000Y-18437761D01*
X53300625Y-18139375D01*
X52809418Y-17811161D01*
X52376256Y-17725000D01*
X52083744Y-17725000D01*
X51650582Y-17811161D01*
X51159375Y-18139375D01*
X50960000Y-18437761D01*
X50760625Y-18139375D01*
X50269418Y-17811161D01*
X49836256Y-17725000D01*
X49543744Y-17725000D01*
X49110582Y-17811161D01*
X48619375Y-18139375D01*
X48420000Y-18437761D01*
X48220625Y-18139375D01*
X47729418Y-17811161D01*
X47296256Y-17725000D01*
X47003744Y-17725000D01*
X46570582Y-17811161D01*
X46079375Y-18139375D01*
X45866157Y-18458478D01*
X45805183Y-18328642D01*
X45376924Y-17938355D01*
X44966890Y-17768524D01*
X44737000Y-17889845D01*
X44737000Y-19083000D01*
X44757000Y-19083000D01*
X44757000Y-19337000D01*
X44737000Y-19337000D01*
X44737000Y-19357000D01*
X44483000Y-19357000D01*
X44483000Y-19337000D01*
X44463000Y-19337000D01*
X44463000Y-19083000D01*
X44483000Y-19083000D01*
X44483000Y-17889845D01*
X44253110Y-17768524D01*
X43843076Y-17938355D01*
X43414817Y-18328642D01*
X43353843Y-18458478D01*
X43140625Y-18139375D01*
X42649418Y-17811161D01*
X42216256Y-17725000D01*
X41923744Y-17725000D01*
X41490582Y-17811161D01*
X40999375Y-18139375D01*
X40800000Y-18437761D01*
X40600625Y-18139375D01*
X40109418Y-17811161D01*
X39676256Y-17725000D01*
X39383744Y-17725000D01*
X38950582Y-17811161D01*
X38459375Y-18139375D01*
X38246157Y-18458478D01*
X38185183Y-18328642D01*
X37756924Y-17938355D01*
X37346890Y-17768524D01*
X37117000Y-17889845D01*
X37117000Y-19083000D01*
X37137000Y-19083000D01*
X37137000Y-19337000D01*
X37117000Y-19337000D01*
X37117000Y-19357000D01*
X36863000Y-19357000D01*
X36863000Y-19337000D01*
X36843000Y-19337000D01*
X36843000Y-19083000D01*
X36863000Y-19083000D01*
X36863000Y-17889845D01*
X36633110Y-17768524D01*
X36223076Y-17938355D01*
X35794817Y-18328642D01*
X35733843Y-18458478D01*
X35520625Y-18139375D01*
X35029418Y-17811161D01*
X34596256Y-17725000D01*
X34303744Y-17725000D01*
X33870582Y-17811161D01*
X33379375Y-18139375D01*
X33180000Y-18437761D01*
X32980625Y-18139375D01*
X32489418Y-17811161D01*
X32056256Y-17725000D01*
X31763744Y-17725000D01*
X31330582Y-17811161D01*
X30839375Y-18139375D01*
X30640000Y-18437761D01*
X30440625Y-18139375D01*
X29949418Y-17811161D01*
X29516256Y-17725000D01*
X29223744Y-17725000D01*
X28790582Y-17811161D01*
X28299375Y-18139375D01*
X28086157Y-18458478D01*
X28025183Y-18328642D01*
X27596924Y-17938355D01*
X27186890Y-17768524D01*
X26957000Y-17889845D01*
X26957000Y-19083000D01*
X26977000Y-19083000D01*
X26977000Y-19337000D01*
X26957000Y-19337000D01*
X26957000Y-19357000D01*
X26703000Y-19357000D01*
X26703000Y-19337000D01*
X26683000Y-19337000D01*
X26683000Y-19083000D01*
X26703000Y-19083000D01*
X26703000Y-17889845D01*
X26473110Y-17768524D01*
X26063076Y-17938355D01*
X25634817Y-18328642D01*
X25573843Y-18458478D01*
X25360625Y-18139375D01*
X24869418Y-17811161D01*
X24436256Y-17725000D01*
X24143744Y-17725000D01*
X23710582Y-17811161D01*
X23219375Y-18139375D01*
X23095344Y-18325000D01*
X22944656Y-18325000D01*
X22820625Y-18139375D01*
X22329418Y-17811161D01*
X21896256Y-17725000D01*
X21603744Y-17725000D01*
X21170582Y-17811161D01*
X20679375Y-18139375D01*
X20564698Y-18311001D01*
X20547919Y-18307663D01*
X20460758Y-18325000D01*
X20460754Y-18325000D01*
X20202609Y-18376348D01*
X19983764Y-18522576D01*
X19983763Y-18522577D01*
X19909870Y-18571951D01*
X19860496Y-18645844D01*
X19193766Y-19312575D01*
X19119870Y-19361951D01*
X18924267Y-19654691D01*
X18872919Y-19912836D01*
X18872919Y-19912839D01*
X18855582Y-20000000D01*
X18485000Y-20000000D01*
X18485000Y-17485000D01*
X73015001Y-17485000D01*
X73015000Y-46015000D01*
X73015000Y-46015000D01*
G37*
X73015000Y-46015000D02*
X18485000Y-46015000D01*
X18485000Y-20000000D01*
X18855582Y-20000000D01*
X18872919Y-20087161D01*
X18872920Y-28670754D01*
X18872919Y-37670758D01*
X18855582Y-37757919D01*
X18872919Y-37845080D01*
X18872919Y-37845083D01*
X18924267Y-38103228D01*
X19119870Y-38395968D01*
X19193766Y-38445344D01*
X20100981Y-39352560D01*
X20000000Y-39352560D01*
X19752235Y-39401843D01*
X19542191Y-39542191D01*
X19401843Y-39752235D01*
X19352560Y-40000000D01*
X19352560Y-43000000D01*
X19401843Y-43247765D01*
X19542191Y-43457809D01*
X19752235Y-43598157D01*
X20000000Y-43647440D01*
X20626990Y-43647440D01*
X20666348Y-43845309D01*
X20812576Y-44064154D01*
X20812578Y-44064156D01*
X20861952Y-44138049D01*
X20935845Y-44187423D01*
X21812577Y-45064156D01*
X21861951Y-45138049D01*
X21935844Y-45187423D01*
X21935845Y-45187424D01*
X22154690Y-45333652D01*
X22412835Y-45385000D01*
X22412839Y-45385000D01*
X22500000Y-45402337D01*
X22587161Y-45385000D01*
X53412839Y-45385000D01*
X53500000Y-45402337D01*
X53587161Y-45385000D01*
X53587165Y-45385000D01*
X53845310Y-45333652D01*
X54138049Y-45138049D01*
X54187425Y-45064153D01*
X55564156Y-43687423D01*
X55638049Y-43638049D01*
X55833652Y-43345310D01*
X55885000Y-43087165D01*
X55885000Y-43087161D01*
X55902337Y-43000001D01*
X55885000Y-42912841D01*
X55885000Y-31766578D01*
X57652769Y-29998810D01*
X57692191Y-30057809D01*
X57902235Y-30198157D01*
X57947619Y-30207184D01*
X57929375Y-30219375D01*
X57601161Y-30710582D01*
X57485908Y-31290000D01*
X57601161Y-31869418D01*
X57929375Y-32360625D01*
X58227761Y-32560000D01*
X57929375Y-32759375D01*
X57601161Y-33250582D01*
X57485908Y-33830000D01*
X57601161Y-34409418D01*
X57929375Y-34900625D01*
X58227761Y-35100000D01*
X57929375Y-35299375D01*
X57601161Y-35790582D01*
X57485908Y-36370000D01*
X57601161Y-36949418D01*
X57929375Y-37440625D01*
X58227761Y-37640000D01*
X57929375Y-37839375D01*
X57601161Y-38330582D01*
X57485908Y-38910000D01*
X57601161Y-39489418D01*
X57929375Y-39980625D01*
X58420582Y-40308839D01*
X58853744Y-40395000D01*
X59146256Y-40395000D01*
X59579418Y-40308839D01*
X60070625Y-39980625D01*
X60271353Y-39680214D01*
X60658642Y-40105183D01*
X61183108Y-40351486D01*
X61413000Y-40230819D01*
X61413000Y-39037000D01*
X61667000Y-39037000D01*
X61667000Y-40230819D01*
X61896892Y-40351486D01*
X62421358Y-40105183D01*
X62811645Y-39676924D01*
X62981476Y-39266890D01*
X62860155Y-39037000D01*
X61667000Y-39037000D01*
X61413000Y-39037000D01*
X61393000Y-39037000D01*
X61393000Y-38783000D01*
X61413000Y-38783000D01*
X61413000Y-36497000D01*
X61667000Y-36497000D01*
X61667000Y-38783000D01*
X62860155Y-38783000D01*
X62981476Y-38553110D01*
X62811645Y-38143076D01*
X62421358Y-37714817D01*
X62262046Y-37640000D01*
X62421358Y-37565183D01*
X62811645Y-37136924D01*
X62981476Y-36726890D01*
X62860155Y-36497000D01*
X61667000Y-36497000D01*
X61413000Y-36497000D01*
X61393000Y-36497000D01*
X61393000Y-36243000D01*
X61413000Y-36243000D01*
X61413000Y-36223000D01*
X61667000Y-36223000D01*
X61667000Y-36243000D01*
X62860155Y-36243000D01*
X62981476Y-36013110D01*
X62811645Y-35603076D01*
X62421358Y-35174817D01*
X62291522Y-35113843D01*
X62610625Y-34900625D01*
X62938839Y-34409418D01*
X63054092Y-33830000D01*
X62938839Y-33250582D01*
X62610625Y-32759375D01*
X62312239Y-32560000D01*
X62610625Y-32360625D01*
X62938839Y-31869418D01*
X63054092Y-31290000D01*
X62938839Y-30710582D01*
X62610625Y-30219375D01*
X62312239Y-30020000D01*
X62610625Y-29820625D01*
X62938839Y-29329418D01*
X63054092Y-28750000D01*
X62938839Y-28170582D01*
X62610625Y-27679375D01*
X62119418Y-27351161D01*
X61686256Y-27265000D01*
X61393744Y-27265000D01*
X60960582Y-27351161D01*
X60469375Y-27679375D01*
X60457184Y-27697619D01*
X60448157Y-27652235D01*
X60307809Y-27442191D01*
X60097765Y-27301843D01*
X59850000Y-27252560D01*
X58150000Y-27252560D01*
X57902235Y-27301843D01*
X57692191Y-27442191D01*
X57551843Y-27652235D01*
X57507326Y-27876041D01*
X57304690Y-27916348D01*
X57085845Y-28062576D01*
X57085844Y-28062577D01*
X57011951Y-28111951D01*
X56962577Y-28185844D01*
X54435845Y-30712577D01*
X54361952Y-30761951D01*
X54312578Y-30835844D01*
X54312576Y-30835846D01*
X54166348Y-31054691D01*
X54097663Y-31400000D01*
X54115001Y-31487165D01*
X54115000Y-42633421D01*
X53133422Y-43615000D01*
X27073143Y-43615000D01*
X27754582Y-43332739D01*
X27914365Y-43013970D01*
X26580000Y-41679605D01*
X25245635Y-43013970D01*
X25405418Y-43332739D01*
X26125466Y-43615000D01*
X23163089Y-43615000D01*
X23247765Y-43598157D01*
X23457809Y-43457809D01*
X23598157Y-43247765D01*
X23647440Y-43000000D01*
X23647440Y-41116187D01*
X24437277Y-41116187D01*
X24453503Y-41965387D01*
X24747261Y-42674582D01*
X25066030Y-42834365D01*
X26400395Y-41500000D01*
X26759605Y-41500000D01*
X28093970Y-42834365D01*
X28412739Y-42674582D01*
X28722723Y-41883813D01*
X28706497Y-41034613D01*
X28412739Y-40325418D01*
X28093970Y-40165635D01*
X26759605Y-41500000D01*
X26400395Y-41500000D01*
X25066030Y-40165635D01*
X24747261Y-40325418D01*
X24437277Y-41116187D01*
X23647440Y-41116187D01*
X23647440Y-40000000D01*
X23644662Y-39986030D01*
X25245635Y-39986030D01*
X26580000Y-41320395D01*
X27914365Y-39986030D01*
X27754582Y-39667261D01*
X26963813Y-39357277D01*
X26114613Y-39373503D01*
X25405418Y-39667261D01*
X25245635Y-39986030D01*
X23644662Y-39986030D01*
X23598157Y-39752235D01*
X23457809Y-39542191D01*
X23247765Y-39401843D01*
X23000000Y-39352560D01*
X22373011Y-39352560D01*
X22333652Y-39154690D01*
X22138049Y-38861951D01*
X22064156Y-38812577D01*
X20642919Y-37391341D01*
X20642919Y-32936890D01*
X32558524Y-32936890D01*
X32728355Y-33346924D01*
X33118642Y-33775183D01*
X33643108Y-34021486D01*
X33873000Y-33900819D01*
X33873000Y-32707000D01*
X34127000Y-32707000D01*
X34127000Y-33900819D01*
X34356892Y-34021486D01*
X34881358Y-33775183D01*
X35271645Y-33346924D01*
X35441476Y-32936890D01*
X35320155Y-32707000D01*
X34127000Y-32707000D01*
X33873000Y-32707000D01*
X32679845Y-32707000D01*
X32558524Y-32936890D01*
X20642919Y-32936890D01*
X20642919Y-30471891D01*
X23133525Y-30471891D01*
X23303356Y-30881925D01*
X23693643Y-31310184D01*
X24218109Y-31556487D01*
X24448001Y-31435820D01*
X24448001Y-30242001D01*
X24702001Y-30242001D01*
X24702001Y-31435820D01*
X24931893Y-31556487D01*
X25456359Y-31310184D01*
X25846646Y-30881925D01*
X26016477Y-30471891D01*
X25895156Y-30242001D01*
X24702001Y-30242001D01*
X24448001Y-30242001D01*
X23254846Y-30242001D01*
X23133525Y-30471891D01*
X20642919Y-30471891D01*
X20642919Y-30040000D01*
X32485908Y-30040000D01*
X32601161Y-30619418D01*
X32929375Y-31110625D01*
X33248478Y-31323843D01*
X33118642Y-31384817D01*
X32728355Y-31813076D01*
X32558524Y-32223110D01*
X32679845Y-32453000D01*
X33873000Y-32453000D01*
X33873000Y-32433000D01*
X34127000Y-32433000D01*
X34127000Y-32453000D01*
X35320155Y-32453000D01*
X35441476Y-32223110D01*
X35271645Y-31813076D01*
X34881358Y-31384817D01*
X34751522Y-31323843D01*
X35070625Y-31110625D01*
X35398839Y-30619418D01*
X35514092Y-30040000D01*
X35398839Y-29460582D01*
X35070625Y-28969375D01*
X35052381Y-28957184D01*
X35097765Y-28948157D01*
X35307809Y-28807809D01*
X35448157Y-28597765D01*
X35497440Y-28350000D01*
X35497440Y-26650000D01*
X35448157Y-26402235D01*
X35307809Y-26192191D01*
X35097765Y-26051843D01*
X34850000Y-26002560D01*
X33150000Y-26002560D01*
X32902235Y-26051843D01*
X32692191Y-26192191D01*
X32551843Y-26402235D01*
X32502560Y-26650000D01*
X32502560Y-28350000D01*
X32551843Y-28597765D01*
X32692191Y-28807809D01*
X32902235Y-28948157D01*
X32947619Y-28957184D01*
X32929375Y-28969375D01*
X32601161Y-29460582D01*
X32485908Y-30040000D01*
X20642919Y-30040000D01*
X20642919Y-26725001D01*
X23077561Y-26725001D01*
X23077561Y-28425001D01*
X23126844Y-28672766D01*
X23267192Y-28882810D01*
X23477236Y-29023158D01*
X23580709Y-29043740D01*
X23303356Y-29348077D01*
X23133525Y-29758111D01*
X23254846Y-29988001D01*
X24448001Y-29988001D01*
X24448001Y-29968001D01*
X24702001Y-29968001D01*
X24702001Y-29988001D01*
X25895156Y-29988001D01*
X26016477Y-29758111D01*
X25846646Y-29348077D01*
X25569293Y-29043740D01*
X25672766Y-29023158D01*
X25882810Y-28882810D01*
X26023158Y-28672766D01*
X26072441Y-28425001D01*
X26072441Y-26725001D01*
X26023158Y-26477236D01*
X25882810Y-26267192D01*
X25672766Y-26126844D01*
X25425001Y-26077561D01*
X23725001Y-26077561D01*
X23477236Y-26126844D01*
X23267192Y-26267192D01*
X23126844Y-26477236D01*
X23077561Y-26725001D01*
X20642919Y-26725001D01*
X20642919Y-23191932D01*
X20652235Y-23198157D01*
X20876042Y-23242674D01*
X20916348Y-23445309D01*
X21111951Y-23738049D01*
X21185847Y-23787425D01*
X22212577Y-24814156D01*
X22261951Y-24888049D01*
X22335844Y-24937423D01*
X22335845Y-24937424D01*
X22501227Y-25047929D01*
X22554690Y-25083652D01*
X22812835Y-25135000D01*
X22812839Y-25135000D01*
X22900000Y-25152337D01*
X22987161Y-25135000D01*
X39482839Y-25135000D01*
X39570000Y-25152337D01*
X39657161Y-25135000D01*
X39657165Y-25135000D01*
X39915310Y-25083652D01*
X40208049Y-24888049D01*
X40257425Y-24814153D01*
X41851040Y-23220538D01*
X41923744Y-23235000D01*
X42216256Y-23235000D01*
X42649418Y-23148839D01*
X43140625Y-22820625D01*
X43340000Y-22522239D01*
X43539375Y-22820625D01*
X44030582Y-23148839D01*
X44463744Y-23235000D01*
X44756256Y-23235000D01*
X45189418Y-23148839D01*
X45680625Y-22820625D01*
X45880000Y-22522239D01*
X46079375Y-22820625D01*
X46570582Y-23148839D01*
X47003744Y-23235000D01*
X47296256Y-23235000D01*
X47729418Y-23148839D01*
X48220625Y-22820625D01*
X48420000Y-22522239D01*
X48619375Y-22820625D01*
X49110582Y-23148839D01*
X49543744Y-23235000D01*
X49836256Y-23235000D01*
X50269418Y-23148839D01*
X50760625Y-22820625D01*
X50973843Y-22501522D01*
X51034817Y-22631358D01*
X51463076Y-23021645D01*
X51873110Y-23191476D01*
X52103000Y-23070155D01*
X52103000Y-21877000D01*
X52083000Y-21877000D01*
X52083000Y-21623000D01*
X52103000Y-21623000D01*
X52103000Y-21603000D01*
X52357000Y-21603000D01*
X52357000Y-21623000D01*
X52377000Y-21623000D01*
X52377000Y-21877000D01*
X52357000Y-21877000D01*
X52357000Y-23070155D01*
X52586890Y-23191476D01*
X52996924Y-23021645D01*
X53425183Y-22631358D01*
X53486157Y-22501522D01*
X53699375Y-22820625D01*
X54190582Y-23148839D01*
X54623744Y-23235000D01*
X54916256Y-23235000D01*
X55349418Y-23148839D01*
X55840625Y-22820625D01*
X56040000Y-22522239D01*
X56239375Y-22820625D01*
X56730582Y-23148839D01*
X57163744Y-23235000D01*
X57290199Y-23235000D01*
X57115530Y-23409669D01*
X57115527Y-23409671D01*
X56785199Y-23740000D01*
X50574846Y-23740000D01*
X50499999Y-23725112D01*
X50425152Y-23740000D01*
X50425148Y-23740000D01*
X50203463Y-23784096D01*
X50203461Y-23784097D01*
X50203462Y-23784097D01*
X50015526Y-23909671D01*
X50015524Y-23909673D01*
X49952071Y-23952071D01*
X49909673Y-24015524D01*
X43655199Y-30270000D01*
X43489126Y-30270000D01*
X43108720Y-30427569D01*
X42817569Y-30718720D01*
X42660000Y-31099126D01*
X42660000Y-31510874D01*
X42817569Y-31891280D01*
X42856289Y-31930000D01*
X42797569Y-31988720D01*
X42640000Y-32369126D01*
X42640000Y-32780874D01*
X42797569Y-33161280D01*
X42836289Y-33200000D01*
X42777569Y-33258720D01*
X42620000Y-33639126D01*
X42620000Y-34050874D01*
X42777569Y-34431280D01*
X43068720Y-34722431D01*
X43449126Y-34880000D01*
X43860874Y-34880000D01*
X44241280Y-34722431D01*
X44532431Y-34431280D01*
X44690000Y-34050874D01*
X44690000Y-33884801D01*
X51814803Y-26760000D01*
X60605153Y-26760000D01*
X60680000Y-26774888D01*
X60754847Y-26760000D01*
X60754852Y-26760000D01*
X60976537Y-26715904D01*
X61227929Y-26547929D01*
X61270331Y-26484470D01*
X62270329Y-25484473D01*
X62270331Y-25484470D01*
X64563592Y-23191209D01*
X64783744Y-23235000D01*
X65076256Y-23235000D01*
X65509418Y-23148839D01*
X66000625Y-22820625D01*
X66200000Y-22522239D01*
X66399375Y-22820625D01*
X66890582Y-23148839D01*
X67323744Y-23235000D01*
X67616256Y-23235000D01*
X68049418Y-23148839D01*
X68540625Y-22820625D01*
X68753843Y-22501522D01*
X68814817Y-22631358D01*
X69243076Y-23021645D01*
X69653110Y-23191476D01*
X69883000Y-23070155D01*
X69883000Y-21877000D01*
X70137000Y-21877000D01*
X70137000Y-23070155D01*
X70366890Y-23191476D01*
X70776924Y-23021645D01*
X71205183Y-22631358D01*
X71451486Y-22106892D01*
X71330819Y-21877000D01*
X70137000Y-21877000D01*
X69883000Y-21877000D01*
X69863000Y-21877000D01*
X69863000Y-21623000D01*
X69883000Y-21623000D01*
X69883000Y-21603000D01*
X70137000Y-21603000D01*
X70137000Y-21623000D01*
X71330819Y-21623000D01*
X71451486Y-21393108D01*
X71205183Y-20868642D01*
X70780214Y-20481353D01*
X71080625Y-20280625D01*
X71408839Y-19789418D01*
X71524092Y-19210000D01*
X71408839Y-18630582D01*
X71080625Y-18139375D01*
X70589418Y-17811161D01*
X70156256Y-17725000D01*
X69863744Y-17725000D01*
X69430582Y-17811161D01*
X68939375Y-18139375D01*
X68740000Y-18437761D01*
X68540625Y-18139375D01*
X68049418Y-17811161D01*
X67616256Y-17725000D01*
X67323744Y-17725000D01*
X66890582Y-17811161D01*
X66399375Y-18139375D01*
X66200000Y-18437761D01*
X66000625Y-18139375D01*
X65509418Y-17811161D01*
X65076256Y-17725000D01*
X64783744Y-17725000D01*
X64350582Y-17811161D01*
X63859375Y-18139375D01*
X63646157Y-18458478D01*
X63585183Y-18328642D01*
X63156924Y-17938355D01*
X62746890Y-17768524D01*
X62517000Y-17889845D01*
X62517000Y-19083000D01*
X62537000Y-19083000D01*
X62537000Y-19337000D01*
X62517000Y-19337000D01*
X62517000Y-19357000D01*
X62263000Y-19357000D01*
X62263000Y-19337000D01*
X62243000Y-19337000D01*
X62243000Y-19083000D01*
X62263000Y-19083000D01*
X62263000Y-17889845D01*
X62033110Y-17768524D01*
X61623076Y-17938355D01*
X61194817Y-18328642D01*
X61133843Y-18458478D01*
X60920625Y-18139375D01*
X60429418Y-17811161D01*
X59996256Y-17725000D01*
X59703744Y-17725000D01*
X59270582Y-17811161D01*
X58779375Y-18139375D01*
X58566157Y-18458478D01*
X58505183Y-18328642D01*
X58076924Y-17938355D01*
X57666890Y-17768524D01*
X57437000Y-17889845D01*
X57437000Y-19083000D01*
X57457000Y-19083000D01*
X57457000Y-19337000D01*
X57437000Y-19337000D01*
X57437000Y-19357000D01*
X57183000Y-19357000D01*
X57183000Y-19337000D01*
X57163000Y-19337000D01*
X57163000Y-19083000D01*
X57183000Y-19083000D01*
X57183000Y-17889845D01*
X56953110Y-17768524D01*
X56543076Y-17938355D01*
X56114817Y-18328642D01*
X56053843Y-18458478D01*
X55840625Y-18139375D01*
X55349418Y-17811161D01*
X54916256Y-17725000D01*
X54623744Y-17725000D01*
X54190582Y-17811161D01*
X53699375Y-18139375D01*
X53500000Y-18437761D01*
X53300625Y-18139375D01*
X52809418Y-17811161D01*
X52376256Y-17725000D01*
X52083744Y-17725000D01*
X51650582Y-17811161D01*
X51159375Y-18139375D01*
X50960000Y-18437761D01*
X50760625Y-18139375D01*
X50269418Y-17811161D01*
X49836256Y-17725000D01*
X49543744Y-17725000D01*
X49110582Y-17811161D01*
X48619375Y-18139375D01*
X48420000Y-18437761D01*
X48220625Y-18139375D01*
X47729418Y-17811161D01*
X47296256Y-17725000D01*
X47003744Y-17725000D01*
X46570582Y-17811161D01*
X46079375Y-18139375D01*
X45866157Y-18458478D01*
X45805183Y-18328642D01*
X45376924Y-17938355D01*
X44966890Y-17768524D01*
X44737000Y-17889845D01*
X44737000Y-19083000D01*
X44757000Y-19083000D01*
X44757000Y-19337000D01*
X44737000Y-19337000D01*
X44737000Y-19357000D01*
X44483000Y-19357000D01*
X44483000Y-19337000D01*
X44463000Y-19337000D01*
X44463000Y-19083000D01*
X44483000Y-19083000D01*
X44483000Y-17889845D01*
X44253110Y-17768524D01*
X43843076Y-17938355D01*
X43414817Y-18328642D01*
X43353843Y-18458478D01*
X43140625Y-18139375D01*
X42649418Y-17811161D01*
X42216256Y-17725000D01*
X41923744Y-17725000D01*
X41490582Y-17811161D01*
X40999375Y-18139375D01*
X40800000Y-18437761D01*
X40600625Y-18139375D01*
X40109418Y-17811161D01*
X39676256Y-17725000D01*
X39383744Y-17725000D01*
X38950582Y-17811161D01*
X38459375Y-18139375D01*
X38246157Y-18458478D01*
X38185183Y-18328642D01*
X37756924Y-17938355D01*
X37346890Y-17768524D01*
X37117000Y-17889845D01*
X37117000Y-19083000D01*
X37137000Y-19083000D01*
X37137000Y-19337000D01*
X37117000Y-19337000D01*
X37117000Y-19357000D01*
X36863000Y-19357000D01*
X36863000Y-19337000D01*
X36843000Y-19337000D01*
X36843000Y-19083000D01*
X36863000Y-19083000D01*
X36863000Y-17889845D01*
X36633110Y-17768524D01*
X36223076Y-17938355D01*
X35794817Y-18328642D01*
X35733843Y-18458478D01*
X35520625Y-18139375D01*
X35029418Y-17811161D01*
X34596256Y-17725000D01*
X34303744Y-17725000D01*
X33870582Y-17811161D01*
X33379375Y-18139375D01*
X33180000Y-18437761D01*
X32980625Y-18139375D01*
X32489418Y-17811161D01*
X32056256Y-17725000D01*
X31763744Y-17725000D01*
X31330582Y-17811161D01*
X30839375Y-18139375D01*
X30640000Y-18437761D01*
X30440625Y-18139375D01*
X29949418Y-17811161D01*
X29516256Y-17725000D01*
X29223744Y-17725000D01*
X28790582Y-17811161D01*
X28299375Y-18139375D01*
X28086157Y-18458478D01*
X28025183Y-18328642D01*
X27596924Y-17938355D01*
X27186890Y-17768524D01*
X26957000Y-17889845D01*
X26957000Y-19083000D01*
X26977000Y-19083000D01*
X26977000Y-19337000D01*
X26957000Y-19337000D01*
X26957000Y-19357000D01*
X26703000Y-19357000D01*
X26703000Y-19337000D01*
X26683000Y-19337000D01*
X26683000Y-19083000D01*
X26703000Y-19083000D01*
X26703000Y-17889845D01*
X26473110Y-17768524D01*
X26063076Y-17938355D01*
X25634817Y-18328642D01*
X25573843Y-18458478D01*
X25360625Y-18139375D01*
X24869418Y-17811161D01*
X24436256Y-17725000D01*
X24143744Y-17725000D01*
X23710582Y-17811161D01*
X23219375Y-18139375D01*
X23095344Y-18325000D01*
X22944656Y-18325000D01*
X22820625Y-18139375D01*
X22329418Y-17811161D01*
X21896256Y-17725000D01*
X21603744Y-17725000D01*
X21170582Y-17811161D01*
X20679375Y-18139375D01*
X20564698Y-18311001D01*
X20547919Y-18307663D01*
X20460758Y-18325000D01*
X20460754Y-18325000D01*
X20202609Y-18376348D01*
X19983764Y-18522576D01*
X19983763Y-18522577D01*
X19909870Y-18571951D01*
X19860496Y-18645844D01*
X19193766Y-19312575D01*
X19119870Y-19361951D01*
X18924267Y-19654691D01*
X18872919Y-19912836D01*
X18872919Y-19912839D01*
X18855582Y-20000000D01*
X18485000Y-20000000D01*
X18485000Y-17485000D01*
X73015001Y-17485000D01*
X73015000Y-46015000D01*
G36*
X32037000Y-21623000D02*
X32057000Y-21623000D01*
X32057000Y-21877000D01*
X32037000Y-21877000D01*
X32037000Y-23070155D01*
X32266890Y-23191476D01*
X32676924Y-23021645D01*
X33105183Y-22631358D01*
X33166157Y-22501522D01*
X33379375Y-22820625D01*
X33870582Y-23148839D01*
X34303744Y-23235000D01*
X34596256Y-23235000D01*
X35029418Y-23148839D01*
X35520625Y-22820625D01*
X35720000Y-22522239D01*
X35919375Y-22820625D01*
X36410582Y-23148839D01*
X36843744Y-23235000D01*
X37136256Y-23235000D01*
X37569418Y-23148839D01*
X38060625Y-22820625D01*
X38260000Y-22522239D01*
X38459375Y-22820625D01*
X38950582Y-23148839D01*
X39341771Y-23226651D01*
X39203422Y-23365000D01*
X23266579Y-23365000D01*
X22998810Y-23097231D01*
X23057809Y-23057809D01*
X23198157Y-22847765D01*
X23207184Y-22802381D01*
X23219375Y-22820625D01*
X23710582Y-23148839D01*
X24143744Y-23235000D01*
X24436256Y-23235000D01*
X24869418Y-23148839D01*
X25360625Y-22820625D01*
X25560000Y-22522239D01*
X25759375Y-22820625D01*
X26250582Y-23148839D01*
X26683744Y-23235000D01*
X26976256Y-23235000D01*
X27409418Y-23148839D01*
X27900625Y-22820625D01*
X28100000Y-22522239D01*
X28299375Y-22820625D01*
X28790582Y-23148839D01*
X29223744Y-23235000D01*
X29516256Y-23235000D01*
X29949418Y-23148839D01*
X30440625Y-22820625D01*
X30653843Y-22501522D01*
X30714817Y-22631358D01*
X31143076Y-23021645D01*
X31553110Y-23191476D01*
X31783000Y-23070155D01*
X31783000Y-21877000D01*
X31763000Y-21877000D01*
X31763000Y-21623000D01*
X31783000Y-21623000D01*
X31783000Y-21603000D01*
X32037000Y-21603000D01*
X32037000Y-21623000D01*
X32037000Y-21623000D01*
G37*
X32037000Y-21623000D02*
X32057000Y-21623000D01*
X32057000Y-21877000D01*
X32037000Y-21877000D01*
X32037000Y-23070155D01*
X32266890Y-23191476D01*
X32676924Y-23021645D01*
X33105183Y-22631358D01*
X33166157Y-22501522D01*
X33379375Y-22820625D01*
X33870582Y-23148839D01*
X34303744Y-23235000D01*
X34596256Y-23235000D01*
X35029418Y-23148839D01*
X35520625Y-22820625D01*
X35720000Y-22522239D01*
X35919375Y-22820625D01*
X36410582Y-23148839D01*
X36843744Y-23235000D01*
X37136256Y-23235000D01*
X37569418Y-23148839D01*
X38060625Y-22820625D01*
X38260000Y-22522239D01*
X38459375Y-22820625D01*
X38950582Y-23148839D01*
X39341771Y-23226651D01*
X39203422Y-23365000D01*
X23266579Y-23365000D01*
X22998810Y-23097231D01*
X23057809Y-23057809D01*
X23198157Y-22847765D01*
X23207184Y-22802381D01*
X23219375Y-22820625D01*
X23710582Y-23148839D01*
X24143744Y-23235000D01*
X24436256Y-23235000D01*
X24869418Y-23148839D01*
X25360625Y-22820625D01*
X25560000Y-22522239D01*
X25759375Y-22820625D01*
X26250582Y-23148839D01*
X26683744Y-23235000D01*
X26976256Y-23235000D01*
X27409418Y-23148839D01*
X27900625Y-22820625D01*
X28100000Y-22522239D01*
X28299375Y-22820625D01*
X28790582Y-23148839D01*
X29223744Y-23235000D01*
X29516256Y-23235000D01*
X29949418Y-23148839D01*
X30440625Y-22820625D01*
X30653843Y-22501522D01*
X30714817Y-22631358D01*
X31143076Y-23021645D01*
X31553110Y-23191476D01*
X31783000Y-23070155D01*
X31783000Y-21877000D01*
X31763000Y-21877000D01*
X31763000Y-21623000D01*
X31783000Y-21623000D01*
X31783000Y-21603000D01*
X32037000Y-21603000D01*
X32037000Y-21623000D01*
G36*
X33379375Y-20280625D02*
X33677761Y-20480000D01*
X33379375Y-20679375D01*
X33166157Y-20998478D01*
X33105183Y-20868642D01*
X32680214Y-20481353D01*
X32980625Y-20280625D01*
X33180000Y-19982239D01*
X33379375Y-20280625D01*
X33379375Y-20280625D01*
G37*
X33379375Y-20280625D02*
X33677761Y-20480000D01*
X33379375Y-20679375D01*
X33166157Y-20998478D01*
X33105183Y-20868642D01*
X32680214Y-20481353D01*
X32980625Y-20280625D01*
X33180000Y-19982239D01*
X33379375Y-20280625D01*
G36*
X35794817Y-20091358D02*
X36219786Y-20478647D01*
X35919375Y-20679375D01*
X35720000Y-20977761D01*
X35520625Y-20679375D01*
X35222239Y-20480000D01*
X35520625Y-20280625D01*
X35733843Y-19961522D01*
X35794817Y-20091358D01*
X35794817Y-20091358D01*
G37*
X35794817Y-20091358D02*
X36219786Y-20478647D01*
X35919375Y-20679375D01*
X35720000Y-20977761D01*
X35520625Y-20679375D01*
X35222239Y-20480000D01*
X35520625Y-20280625D01*
X35733843Y-19961522D01*
X35794817Y-20091358D01*
G04 #@! TD*
M02*
