M48
;DRILL file {KiCad (5.0.0)} date 10/07/19 00:36:11
;FORMAT={-:-/ absolute / inch / decimal}
FMAT,2
INCH,TZ
T1C0.0157
T2C0.0394
T3C0.0598
%
G90
G05
M72
T1
X1.7187Y-1.3325
X1.7195Y-1.2825
X1.7203Y-1.2325
T2
X0.9675Y-1.0856
X0.9675Y-1.1856
X0.8563Y-0.7563
X0.8563Y-0.8563
X0.9563Y-0.7563
X0.9563Y-0.8563
X1.0563Y-0.7563
X1.0563Y-0.8563
X1.1563Y-0.7563
X1.1563Y-0.8563
X1.2563Y-0.7563
X1.2563Y-0.8563
X1.3563Y-0.7563
X1.3563Y-0.8563
X1.4563Y-0.7563
X1.4563Y-0.8563
X1.5563Y-0.7563
X1.5563Y-0.8563
X1.6563Y-0.7563
X1.6563Y-0.8563
X1.7563Y-0.7563
X1.7563Y-0.8563
X1.8563Y-0.7563
X1.8563Y-0.8563
X1.9563Y-0.7563
X1.9563Y-0.8563
X2.0563Y-0.7563
X2.0563Y-0.8563
X2.1563Y-0.7563
X2.1563Y-0.8563
X2.2563Y-0.7563
X2.2563Y-0.8563
X2.3563Y-0.7563
X2.3563Y-0.8563
X2.4563Y-0.7563
X2.4563Y-0.8563
X2.5563Y-0.7563
X2.5563Y-0.8563
X2.6563Y-0.7563
X2.6563Y-0.8563
X2.7563Y-0.7563
X2.7563Y-0.8563
X1.3386Y-1.0827
X1.3386Y-1.1827
X1.3386Y-1.2827
X2.3228Y-1.1319
X2.3228Y-1.2319
X2.3228Y-1.3319
X2.3228Y-1.4319
X2.3228Y-1.5319
X2.4228Y-1.1319
X2.4228Y-1.2319
X2.4228Y-1.3319
X2.4228Y-1.4319
X2.4228Y-1.5319
T3
X0.8465Y-1.6339
X1.0465Y-1.6339
T0
M30
