G04 #@! TF.GenerationSoftware,KiCad,Pcbnew,(5.0.0)*
G04 #@! TF.CreationDate,2019-10-07T00:36:16+02:00*
G04 #@! TF.ProjectId,pizerospi,70697A65726F7370692E6B696361645F,rev?*
G04 #@! TF.SameCoordinates,Original*
G04 #@! TF.FileFunction,Soldermask,Bot*
G04 #@! TF.FilePolarity,Negative*
%FSLAX46Y46*%
G04 Gerber Fmt 4.6, Leading zero omitted, Abs format (unit mm)*
G04 Created by KiCad (PCBNEW (5.0.0)) date 10/07/19 00:36:16*
%MOMM*%
%LPD*%
G01*
G04 APERTURE LIST*
%ADD10O,2.100000X2.100000*%
%ADD11R,2.100000X2.100000*%
%ADD12C,3.400000*%
%ADD13R,3.400000X3.400000*%
G04 APERTURE END LIST*
D10*
G04 #@! TO.C,J1*
X61540000Y-38910000D03*
X59000000Y-38910000D03*
X61540000Y-36370000D03*
X59000000Y-36370000D03*
X61540000Y-33830000D03*
X59000000Y-33830000D03*
X61540000Y-31290000D03*
X59000000Y-31290000D03*
X61540000Y-28750000D03*
D11*
X59000000Y-28750000D03*
G04 #@! TD*
D10*
G04 #@! TO.C,J2*
X70010000Y-19210000D03*
X70010000Y-21750000D03*
X67470000Y-19210000D03*
X67470000Y-21750000D03*
X64930000Y-19210000D03*
X64930000Y-21750000D03*
X62390000Y-19210000D03*
X62390000Y-21750000D03*
X59850000Y-19210000D03*
X59850000Y-21750000D03*
X57310000Y-19210000D03*
X57310000Y-21750000D03*
X54770000Y-19210000D03*
X54770000Y-21750000D03*
X52230000Y-19210000D03*
X52230000Y-21750000D03*
X49690000Y-19210000D03*
X49690000Y-21750000D03*
X47150000Y-19210000D03*
X47150000Y-21750000D03*
X44610000Y-19210000D03*
X44610000Y-21750000D03*
X42070000Y-19210000D03*
X42070000Y-21750000D03*
X39530000Y-19210000D03*
X39530000Y-21750000D03*
X36990000Y-19210000D03*
X36990000Y-21750000D03*
X34450000Y-19210000D03*
X34450000Y-21750000D03*
X31910000Y-19210000D03*
X31910000Y-21750000D03*
X29370000Y-19210000D03*
X29370000Y-21750000D03*
X26830000Y-19210000D03*
X26830000Y-21750000D03*
X24290000Y-19210000D03*
X24290000Y-21750000D03*
X21750000Y-19210000D03*
D11*
X21750000Y-21750000D03*
G04 #@! TD*
D12*
G04 #@! TO.C,J3*
X26580000Y-41500000D03*
D13*
X21500000Y-41500000D03*
G04 #@! TD*
D10*
G04 #@! TO.C,J4*
X24575001Y-30115001D03*
D11*
X24575001Y-27575001D03*
G04 #@! TD*
D10*
G04 #@! TO.C,J5*
X34000000Y-32580000D03*
X34000000Y-30040000D03*
D11*
X34000000Y-27500000D03*
G04 #@! TD*
M02*
