G04 #@! TF.GenerationSoftware,KiCad,Pcbnew,(5.0.0)*
G04 #@! TF.CreationDate,2019-10-07T00:36:16+02:00*
G04 #@! TF.ProjectId,pizerospi,70697A65726F7370692E6B696361645F,rev?*
G04 #@! TF.SameCoordinates,Original*
G04 #@! TF.FileFunction,Legend,Top*
G04 #@! TF.FilePolarity,Positive*
%FSLAX46Y46*%
G04 Gerber Fmt 4.6, Leading zero omitted, Abs format (unit mm)*
G04 Created by KiCad (PCBNEW (5.0.0)) date 10/07/19 00:36:16*
%MOMM*%
%LPD*%
G01*
G04 APERTURE LIST*
%ADD10C,0.150000*%
%ADD11C,0.200000*%
%ADD12C,0.120000*%
G04 APERTURE END LIST*
D10*
X68973928Y-43997619D02*
X68607261Y-43473809D01*
X68345357Y-43997619D02*
X68345357Y-42897619D01*
X68764404Y-42897619D01*
X68869166Y-42950000D01*
X68921547Y-43002380D01*
X68973928Y-43107142D01*
X68973928Y-43264285D01*
X68921547Y-43369047D01*
X68869166Y-43421428D01*
X68764404Y-43473809D01*
X68345357Y-43473809D01*
X69445357Y-43421428D02*
X69812023Y-43421428D01*
X69969166Y-43997619D02*
X69445357Y-43997619D01*
X69445357Y-42897619D01*
X69969166Y-42897619D01*
X70283452Y-42897619D02*
X70650119Y-43997619D01*
X71016785Y-42897619D01*
X72169166Y-43683333D02*
X72692976Y-43683333D01*
X72064404Y-43997619D02*
X72431071Y-42897619D01*
X72797738Y-43997619D01*
X42050119Y-45997619D02*
X42050119Y-44897619D01*
X42521547Y-45997619D02*
X42521547Y-45421428D01*
X42469166Y-45316666D01*
X42364404Y-45264285D01*
X42207261Y-45264285D01*
X42102500Y-45316666D01*
X42050119Y-45369047D01*
X42888214Y-45264285D02*
X43307261Y-45264285D01*
X43045357Y-44897619D02*
X43045357Y-45840476D01*
X43097738Y-45945238D01*
X43202500Y-45997619D01*
X43307261Y-45997619D01*
X43516785Y-45264285D02*
X43935833Y-45264285D01*
X43673928Y-44897619D02*
X43673928Y-45840476D01*
X43726309Y-45945238D01*
X43831071Y-45997619D01*
X43935833Y-45997619D01*
X44302500Y-45264285D02*
X44302500Y-46364285D01*
X44302500Y-45316666D02*
X44407261Y-45264285D01*
X44616785Y-45264285D01*
X44721547Y-45316666D01*
X44773928Y-45369047D01*
X44826309Y-45473809D01*
X44826309Y-45788095D01*
X44773928Y-45892857D01*
X44721547Y-45945238D01*
X44616785Y-45997619D01*
X44407261Y-45997619D01*
X44302500Y-45945238D01*
X45245357Y-45945238D02*
X45350119Y-45997619D01*
X45559642Y-45997619D01*
X45664404Y-45945238D01*
X45716785Y-45840476D01*
X45716785Y-45788095D01*
X45664404Y-45683333D01*
X45559642Y-45630952D01*
X45402500Y-45630952D01*
X45297738Y-45578571D01*
X45245357Y-45473809D01*
X45245357Y-45421428D01*
X45297738Y-45316666D01*
X45402500Y-45264285D01*
X45559642Y-45264285D01*
X45664404Y-45316666D01*
X46188214Y-45892857D02*
X46240595Y-45945238D01*
X46188214Y-45997619D01*
X46135833Y-45945238D01*
X46188214Y-45892857D01*
X46188214Y-45997619D01*
X46188214Y-45316666D02*
X46240595Y-45369047D01*
X46188214Y-45421428D01*
X46135833Y-45369047D01*
X46188214Y-45316666D01*
X46188214Y-45421428D01*
X47497738Y-44845238D02*
X46554880Y-46259523D01*
X48650119Y-44845238D02*
X47707261Y-46259523D01*
X49488214Y-45264285D02*
X49488214Y-46154761D01*
X49435833Y-46259523D01*
X49383452Y-46311904D01*
X49278690Y-46364285D01*
X49121547Y-46364285D01*
X49016785Y-46311904D01*
X49488214Y-45945238D02*
X49383452Y-45997619D01*
X49173928Y-45997619D01*
X49069166Y-45945238D01*
X49016785Y-45892857D01*
X48964404Y-45788095D01*
X48964404Y-45473809D01*
X49016785Y-45369047D01*
X49069166Y-45316666D01*
X49173928Y-45264285D01*
X49383452Y-45264285D01*
X49488214Y-45316666D01*
X50012023Y-45997619D02*
X50012023Y-45264285D01*
X50012023Y-44897619D02*
X49959642Y-44950000D01*
X50012023Y-45002380D01*
X50064404Y-44950000D01*
X50012023Y-44897619D01*
X50012023Y-45002380D01*
X50378690Y-45264285D02*
X50797738Y-45264285D01*
X50535833Y-44897619D02*
X50535833Y-45840476D01*
X50588214Y-45945238D01*
X50692976Y-45997619D01*
X50797738Y-45997619D01*
X51164404Y-45997619D02*
X51164404Y-44897619D01*
X51635833Y-45997619D02*
X51635833Y-45421428D01*
X51583452Y-45316666D01*
X51478690Y-45264285D01*
X51321547Y-45264285D01*
X51216785Y-45316666D01*
X51164404Y-45369047D01*
X52631071Y-45264285D02*
X52631071Y-45997619D01*
X52159642Y-45264285D02*
X52159642Y-45840476D01*
X52212023Y-45945238D01*
X52316785Y-45997619D01*
X52473928Y-45997619D01*
X52578690Y-45945238D01*
X52631071Y-45892857D01*
X53154880Y-45997619D02*
X53154880Y-44897619D01*
X53154880Y-45316666D02*
X53259642Y-45264285D01*
X53469166Y-45264285D01*
X53573928Y-45316666D01*
X53626309Y-45369047D01*
X53678690Y-45473809D01*
X53678690Y-45788095D01*
X53626309Y-45892857D01*
X53573928Y-45945238D01*
X53469166Y-45997619D01*
X53259642Y-45997619D01*
X53154880Y-45945238D01*
X54150119Y-45892857D02*
X54202500Y-45945238D01*
X54150119Y-45997619D01*
X54097738Y-45945238D01*
X54150119Y-45892857D01*
X54150119Y-45997619D01*
X55145357Y-45945238D02*
X55040595Y-45997619D01*
X54831071Y-45997619D01*
X54726309Y-45945238D01*
X54673928Y-45892857D01*
X54621547Y-45788095D01*
X54621547Y-45473809D01*
X54673928Y-45369047D01*
X54726309Y-45316666D01*
X54831071Y-45264285D01*
X55040595Y-45264285D01*
X55145357Y-45316666D01*
X55773928Y-45997619D02*
X55669166Y-45945238D01*
X55616785Y-45892857D01*
X55564404Y-45788095D01*
X55564404Y-45473809D01*
X55616785Y-45369047D01*
X55669166Y-45316666D01*
X55773928Y-45264285D01*
X55931071Y-45264285D01*
X56035833Y-45316666D01*
X56088214Y-45369047D01*
X56140595Y-45473809D01*
X56140595Y-45788095D01*
X56088214Y-45892857D01*
X56035833Y-45945238D01*
X55931071Y-45997619D01*
X55773928Y-45997619D01*
X56612023Y-45997619D02*
X56612023Y-45264285D01*
X56612023Y-45369047D02*
X56664404Y-45316666D01*
X56769166Y-45264285D01*
X56926309Y-45264285D01*
X57031071Y-45316666D01*
X57083452Y-45421428D01*
X57083452Y-45997619D01*
X57083452Y-45421428D02*
X57135833Y-45316666D01*
X57240595Y-45264285D01*
X57397738Y-45264285D01*
X57502500Y-45316666D01*
X57554880Y-45421428D01*
X57554880Y-45997619D01*
X58864404Y-44845238D02*
X57921547Y-46259523D01*
X59231071Y-45997619D02*
X59231071Y-44897619D01*
X59335833Y-45578571D02*
X59650119Y-45997619D01*
X59650119Y-45264285D02*
X59231071Y-45683333D01*
X60121547Y-45997619D02*
X60121547Y-45264285D01*
X60121547Y-44897619D02*
X60069166Y-44950000D01*
X60121547Y-45002380D01*
X60173928Y-44950000D01*
X60121547Y-44897619D01*
X60121547Y-45002380D01*
X61116785Y-45264285D02*
X61116785Y-45997619D01*
X60645357Y-45264285D02*
X60645357Y-45840476D01*
X60697738Y-45945238D01*
X60802500Y-45997619D01*
X60959642Y-45997619D01*
X61064404Y-45945238D01*
X61116785Y-45892857D01*
X62426309Y-44845238D02*
X61483452Y-46259523D01*
X62792976Y-45997619D02*
X62792976Y-44897619D01*
X63264404Y-45997619D02*
X63264404Y-45421428D01*
X63212023Y-45316666D01*
X63107261Y-45264285D01*
X62950119Y-45264285D01*
X62845357Y-45316666D01*
X62792976Y-45369047D01*
X64259642Y-45264285D02*
X64259642Y-45997619D01*
X63788214Y-45264285D02*
X63788214Y-45840476D01*
X63840595Y-45945238D01*
X63945357Y-45997619D01*
X64102499Y-45997619D01*
X64207261Y-45945238D01*
X64259642Y-45892857D01*
X64783452Y-45997619D02*
X64783452Y-44897619D01*
X64783452Y-45316666D02*
X64888214Y-45264285D01*
X65097738Y-45264285D01*
X65202499Y-45316666D01*
X65254880Y-45369047D01*
X65307261Y-45473809D01*
X65307261Y-45788095D01*
X65254880Y-45892857D01*
X65202499Y-45945238D01*
X65097738Y-45997619D01*
X64888214Y-45997619D01*
X64783452Y-45945238D01*
X65673928Y-44897619D02*
X66407261Y-44897619D01*
X65935833Y-45997619D01*
X67350119Y-44897619D02*
X66826309Y-44897619D01*
X66773928Y-45421428D01*
X66826309Y-45369047D01*
X66931071Y-45316666D01*
X67192976Y-45316666D01*
X67297738Y-45369047D01*
X67350119Y-45421428D01*
X67402500Y-45526190D01*
X67402500Y-45788095D01*
X67350119Y-45892857D01*
X67297738Y-45945238D01*
X67192976Y-45997619D01*
X66931071Y-45997619D01*
X66826309Y-45945238D01*
X66773928Y-45892857D01*
X67821547Y-45945238D02*
X67926309Y-45997619D01*
X68135833Y-45997619D01*
X68240595Y-45945238D01*
X68292976Y-45840476D01*
X68292976Y-45788095D01*
X68240595Y-45683333D01*
X68135833Y-45630952D01*
X67978690Y-45630952D01*
X67873928Y-45578571D01*
X67821547Y-45473809D01*
X67821547Y-45421428D01*
X67873928Y-45316666D01*
X67978690Y-45264285D01*
X68135833Y-45264285D01*
X68240595Y-45316666D01*
X68764404Y-45997619D02*
X68764404Y-44897619D01*
X69235833Y-45997619D02*
X69235833Y-45421428D01*
X69183452Y-45316666D01*
X69078690Y-45264285D01*
X68921547Y-45264285D01*
X68816785Y-45316666D01*
X68764404Y-45369047D01*
X69759642Y-45997619D02*
X69759642Y-45264285D01*
X69759642Y-44897619D02*
X69707261Y-44950000D01*
X69759642Y-45002380D01*
X69812023Y-44950000D01*
X69759642Y-44897619D01*
X69759642Y-45002380D01*
X70126309Y-45264285D02*
X70545357Y-45264285D01*
X70283452Y-45997619D02*
X70283452Y-45054761D01*
X70335833Y-44950000D01*
X70440595Y-44897619D01*
X70545357Y-44897619D01*
X70754880Y-45264285D02*
X71173928Y-45264285D01*
X70912023Y-44897619D02*
X70912023Y-45840476D01*
X70964404Y-45945238D01*
X71069166Y-45997619D01*
X71173928Y-45997619D01*
X71959642Y-45945238D02*
X71854880Y-45997619D01*
X71645357Y-45997619D01*
X71540595Y-45945238D01*
X71488214Y-45840476D01*
X71488214Y-45421428D01*
X71540595Y-45316666D01*
X71645357Y-45264285D01*
X71854880Y-45264285D01*
X71959642Y-45316666D01*
X72012023Y-45421428D01*
X72012023Y-45526190D01*
X71488214Y-45630952D01*
X72483452Y-45997619D02*
X72483452Y-45264285D01*
X72483452Y-45473809D02*
X72535833Y-45369047D01*
X72588214Y-45316666D01*
X72692976Y-45264285D01*
X72797738Y-45264285D01*
X69190476Y-23952380D02*
X69809523Y-23952380D01*
X69476190Y-24333333D01*
X69619047Y-24333333D01*
X69714285Y-24380952D01*
X69761904Y-24428571D01*
X69809523Y-24523809D01*
X69809523Y-24761904D01*
X69761904Y-24857142D01*
X69714285Y-24904761D01*
X69619047Y-24952380D01*
X69333333Y-24952380D01*
X69238095Y-24904761D01*
X69190476Y-24857142D01*
X70285714Y-24952380D02*
X70476190Y-24952380D01*
X70571428Y-24904761D01*
X70619047Y-24857142D01*
X70714285Y-24714285D01*
X70761904Y-24523809D01*
X70761904Y-24142857D01*
X70714285Y-24047619D01*
X70666666Y-24000000D01*
X70571428Y-23952380D01*
X70380952Y-23952380D01*
X70285714Y-24000000D01*
X70238095Y-24047619D01*
X70190476Y-24142857D01*
X70190476Y-24380952D01*
X70238095Y-24476190D01*
X70285714Y-24523809D01*
X70380952Y-24571428D01*
X70571428Y-24571428D01*
X70666666Y-24523809D01*
X70714285Y-24476190D01*
X70761904Y-24380952D01*
X22035714Y-24952380D02*
X21464285Y-24952380D01*
X21750000Y-24952380D02*
X21750000Y-23952380D01*
X21654761Y-24095238D01*
X21559523Y-24190476D01*
X21464285Y-24238095D01*
D11*
X65000000Y-30000000D02*
X65000000Y-38000000D01*
X73000000Y-30000000D02*
X65000000Y-30000000D01*
X73000000Y-38000000D02*
X73000000Y-30000000D01*
X65000000Y-38000000D02*
X73000000Y-38000000D01*
D10*
X67523809Y-30152380D02*
X67047619Y-30152380D01*
X67000000Y-30628571D01*
X67047619Y-30580952D01*
X67142857Y-30533333D01*
X67380952Y-30533333D01*
X67476190Y-30580952D01*
X67523809Y-30628571D01*
X67571428Y-30723809D01*
X67571428Y-30961904D01*
X67523809Y-31057142D01*
X67476190Y-31104761D01*
X67380952Y-31152380D01*
X67142857Y-31152380D01*
X67047619Y-31104761D01*
X67000000Y-31057142D01*
X67857142Y-30152380D02*
X68190476Y-31152380D01*
X68523809Y-30152380D01*
X70095238Y-30152380D02*
X69619047Y-30152380D01*
X69571428Y-30628571D01*
X69619047Y-30580952D01*
X69714285Y-30533333D01*
X69952380Y-30533333D01*
X70047619Y-30580952D01*
X70095238Y-30628571D01*
X70142857Y-30723809D01*
X70142857Y-30961904D01*
X70095238Y-31057142D01*
X70047619Y-31104761D01*
X69952380Y-31152380D01*
X69714285Y-31152380D01*
X69619047Y-31104761D01*
X69571428Y-31057142D01*
X70428571Y-30152380D02*
X70761904Y-31152380D01*
X71095238Y-30152380D01*
X65785714Y-32754761D02*
X65928571Y-32802380D01*
X66166666Y-32802380D01*
X66261904Y-32754761D01*
X66309523Y-32707142D01*
X66357142Y-32611904D01*
X66357142Y-32516666D01*
X66309523Y-32421428D01*
X66261904Y-32373809D01*
X66166666Y-32326190D01*
X65976190Y-32278571D01*
X65880952Y-32230952D01*
X65833333Y-32183333D01*
X65785714Y-32088095D01*
X65785714Y-31992857D01*
X65833333Y-31897619D01*
X65880952Y-31850000D01*
X65976190Y-31802380D01*
X66214285Y-31802380D01*
X66357142Y-31850000D01*
X66785714Y-32802380D02*
X66785714Y-31802380D01*
X66785714Y-32278571D02*
X67357142Y-32278571D01*
X67357142Y-32802380D02*
X67357142Y-31802380D01*
X67833333Y-32802380D02*
X67833333Y-31802380D01*
X68642857Y-32278571D02*
X68309523Y-32278571D01*
X68309523Y-32802380D02*
X68309523Y-31802380D01*
X68785714Y-31802380D01*
X69023809Y-31802380D02*
X69595238Y-31802380D01*
X69309523Y-32802380D02*
X69309523Y-31802380D01*
X70880952Y-31802380D02*
X71071428Y-31802380D01*
X71166666Y-31850000D01*
X71261904Y-31945238D01*
X71309523Y-32135714D01*
X71309523Y-32469047D01*
X71261904Y-32659523D01*
X71166666Y-32754761D01*
X71071428Y-32802380D01*
X70880952Y-32802380D01*
X70785714Y-32754761D01*
X70690476Y-32659523D01*
X70642857Y-32469047D01*
X70642857Y-32135714D01*
X70690476Y-31945238D01*
X70785714Y-31850000D01*
X70880952Y-31802380D01*
X71738095Y-32278571D02*
X72071428Y-32278571D01*
X72214285Y-32802380D02*
X71738095Y-32802380D01*
X71738095Y-31802380D01*
X72214285Y-31802380D01*
X65571428Y-34404761D02*
X65714285Y-34452380D01*
X65952380Y-34452380D01*
X66047619Y-34404761D01*
X66095238Y-34357142D01*
X66142857Y-34261904D01*
X66142857Y-34166666D01*
X66095238Y-34071428D01*
X66047619Y-34023809D01*
X65952380Y-33976190D01*
X65761904Y-33928571D01*
X65666666Y-33880952D01*
X65619047Y-33833333D01*
X65571428Y-33738095D01*
X65571428Y-33642857D01*
X65619047Y-33547619D01*
X65666666Y-33500000D01*
X65761904Y-33452380D01*
X66000000Y-33452380D01*
X66142857Y-33500000D01*
X66523809Y-34404761D02*
X66666666Y-34452380D01*
X66904761Y-34452380D01*
X67000000Y-34404761D01*
X67047619Y-34357142D01*
X67095238Y-34261904D01*
X67095238Y-34166666D01*
X67047619Y-34071428D01*
X67000000Y-34023809D01*
X66904761Y-33976190D01*
X66714285Y-33928571D01*
X66619047Y-33880952D01*
X66571428Y-33833333D01*
X66523809Y-33738095D01*
X66523809Y-33642857D01*
X66571428Y-33547619D01*
X66619047Y-33500000D01*
X66714285Y-33452380D01*
X66952380Y-33452380D01*
X67095238Y-33500000D01*
X68857142Y-34357142D02*
X68809523Y-34404761D01*
X68666666Y-34452380D01*
X68571428Y-34452380D01*
X68428571Y-34404761D01*
X68333333Y-34309523D01*
X68285714Y-34214285D01*
X68238095Y-34023809D01*
X68238095Y-33880952D01*
X68285714Y-33690476D01*
X68333333Y-33595238D01*
X68428571Y-33500000D01*
X68571428Y-33452380D01*
X68666666Y-33452380D01*
X68809523Y-33500000D01*
X68857142Y-33547619D01*
X69761904Y-34452380D02*
X69285714Y-34452380D01*
X69285714Y-33452380D01*
X70095238Y-33928571D02*
X70428571Y-33928571D01*
X70571428Y-34452380D02*
X70095238Y-34452380D01*
X70095238Y-33452380D01*
X70571428Y-33452380D01*
X70952380Y-34166666D02*
X71428571Y-34166666D01*
X70857142Y-34452380D02*
X71190476Y-33452380D01*
X71523809Y-34452380D01*
X72428571Y-34452380D02*
X72095238Y-33976190D01*
X71857142Y-34452380D02*
X71857142Y-33452380D01*
X72238095Y-33452380D01*
X72333333Y-33500000D01*
X72380952Y-33547619D01*
X72428571Y-33642857D01*
X72428571Y-33785714D01*
X72380952Y-33880952D01*
X72333333Y-33928571D01*
X72238095Y-33976190D01*
X71857142Y-33976190D01*
X65809523Y-36054761D02*
X65952380Y-36102380D01*
X66190476Y-36102380D01*
X66285714Y-36054761D01*
X66333333Y-36007142D01*
X66380952Y-35911904D01*
X66380952Y-35816666D01*
X66333333Y-35721428D01*
X66285714Y-35673809D01*
X66190476Y-35626190D01*
X66000000Y-35578571D01*
X65904761Y-35530952D01*
X65857142Y-35483333D01*
X65809523Y-35388095D01*
X65809523Y-35292857D01*
X65857142Y-35197619D01*
X65904761Y-35150000D01*
X66000000Y-35102380D01*
X66238095Y-35102380D01*
X66380952Y-35150000D01*
X67380952Y-36007142D02*
X67333333Y-36054761D01*
X67190476Y-36102380D01*
X67095238Y-36102380D01*
X66952380Y-36054761D01*
X66857142Y-35959523D01*
X66809523Y-35864285D01*
X66761904Y-35673809D01*
X66761904Y-35530952D01*
X66809523Y-35340476D01*
X66857142Y-35245238D01*
X66952380Y-35150000D01*
X67095238Y-35102380D01*
X67190476Y-35102380D01*
X67333333Y-35150000D01*
X67380952Y-35197619D01*
X67809523Y-36102380D02*
X67809523Y-35102380D01*
X68380952Y-36102380D02*
X67952380Y-35530952D01*
X68380952Y-35102380D02*
X67809523Y-35673809D01*
X70095238Y-35150000D02*
X70000000Y-35102380D01*
X69857142Y-35102380D01*
X69714285Y-35150000D01*
X69619047Y-35245238D01*
X69571428Y-35340476D01*
X69523809Y-35530952D01*
X69523809Y-35673809D01*
X69571428Y-35864285D01*
X69619047Y-35959523D01*
X69714285Y-36054761D01*
X69857142Y-36102380D01*
X69952380Y-36102380D01*
X70095238Y-36054761D01*
X70142857Y-36007142D01*
X70142857Y-35673809D01*
X69952380Y-35673809D01*
X70571428Y-36102380D02*
X70571428Y-35102380D01*
X71142857Y-36102380D01*
X71142857Y-35102380D01*
X71619047Y-36102380D02*
X71619047Y-35102380D01*
X71857142Y-35102380D01*
X72000000Y-35150000D01*
X72095238Y-35245238D01*
X72142857Y-35340476D01*
X72190476Y-35530952D01*
X72190476Y-35673809D01*
X72142857Y-35864285D01*
X72095238Y-35959523D01*
X72000000Y-36054761D01*
X71857142Y-36102380D01*
X71619047Y-36102380D01*
X65523809Y-37752380D02*
X65523809Y-36752380D01*
X65857142Y-37466666D01*
X66190476Y-36752380D01*
X66190476Y-37752380D01*
X66857142Y-36752380D02*
X67047619Y-36752380D01*
X67142857Y-36800000D01*
X67238095Y-36895238D01*
X67285714Y-37085714D01*
X67285714Y-37419047D01*
X67238095Y-37609523D01*
X67142857Y-37704761D01*
X67047619Y-37752380D01*
X66857142Y-37752380D01*
X66761904Y-37704761D01*
X66666666Y-37609523D01*
X66619047Y-37419047D01*
X66619047Y-37085714D01*
X66666666Y-36895238D01*
X66761904Y-36800000D01*
X66857142Y-36752380D01*
X67666666Y-37704761D02*
X67809523Y-37752380D01*
X68047619Y-37752380D01*
X68142857Y-37704761D01*
X68190476Y-37657142D01*
X68238095Y-37561904D01*
X68238095Y-37466666D01*
X68190476Y-37371428D01*
X68142857Y-37323809D01*
X68047619Y-37276190D01*
X67857142Y-37228571D01*
X67761904Y-37180952D01*
X67714285Y-37133333D01*
X67666666Y-37038095D01*
X67666666Y-36942857D01*
X67714285Y-36847619D01*
X67761904Y-36800000D01*
X67857142Y-36752380D01*
X68095238Y-36752380D01*
X68238095Y-36800000D01*
X68666666Y-37752380D02*
X68666666Y-36752380D01*
X70428571Y-36800000D02*
X70333333Y-36752380D01*
X70190476Y-36752380D01*
X70047619Y-36800000D01*
X69952380Y-36895238D01*
X69904761Y-36990476D01*
X69857142Y-37180952D01*
X69857142Y-37323809D01*
X69904761Y-37514285D01*
X69952380Y-37609523D01*
X70047619Y-37704761D01*
X70190476Y-37752380D01*
X70285714Y-37752380D01*
X70428571Y-37704761D01*
X70476190Y-37657142D01*
X70476190Y-37323809D01*
X70285714Y-37323809D01*
X70904761Y-37752380D02*
X70904761Y-36752380D01*
X71476190Y-37752380D01*
X71476190Y-36752380D01*
X71952380Y-37752380D02*
X71952380Y-36752380D01*
X72190476Y-36752380D01*
X72333333Y-36800000D01*
X72428571Y-36895238D01*
X72476190Y-36990476D01*
X72523809Y-37180952D01*
X72523809Y-37323809D01*
X72476190Y-37514285D01*
X72428571Y-37609523D01*
X72333333Y-37704761D01*
X72190476Y-37752380D01*
X71952380Y-37752380D01*
D11*
X27500000Y-32000000D02*
X27500000Y-37000000D01*
X30500000Y-32000000D02*
X27500000Y-32000000D01*
X30500000Y-37000000D02*
X30500000Y-32000000D01*
X27500000Y-37000000D02*
X30500000Y-37000000D01*
X34000000Y-46000000D02*
X34000000Y-44000000D01*
D10*
X28238095Y-32302380D02*
X28809523Y-32302380D01*
X28523809Y-33302380D02*
X28523809Y-32302380D01*
X29047619Y-32302380D02*
X29714285Y-33302380D01*
X29714285Y-32302380D02*
X29047619Y-33302380D01*
X28833333Y-34952380D02*
X28500000Y-34476190D01*
X28261904Y-34952380D02*
X28261904Y-33952380D01*
X28642857Y-33952380D01*
X28738095Y-34000000D01*
X28785714Y-34047619D01*
X28833333Y-34142857D01*
X28833333Y-34285714D01*
X28785714Y-34380952D01*
X28738095Y-34428571D01*
X28642857Y-34476190D01*
X28261904Y-34476190D01*
X29166666Y-33952380D02*
X29833333Y-34952380D01*
X29833333Y-33952380D02*
X29166666Y-34952380D01*
X28238095Y-35650000D02*
X28142857Y-35602380D01*
X28000000Y-35602380D01*
X27857142Y-35650000D01*
X27761904Y-35745238D01*
X27714285Y-35840476D01*
X27666666Y-36030952D01*
X27666666Y-36173809D01*
X27714285Y-36364285D01*
X27761904Y-36459523D01*
X27857142Y-36554761D01*
X28000000Y-36602380D01*
X28095238Y-36602380D01*
X28238095Y-36554761D01*
X28285714Y-36507142D01*
X28285714Y-36173809D01*
X28095238Y-36173809D01*
X28714285Y-36602380D02*
X28714285Y-35602380D01*
X29285714Y-36602380D01*
X29285714Y-35602380D01*
X29761904Y-36602380D02*
X29761904Y-35602380D01*
X30000000Y-35602380D01*
X30142857Y-35650000D01*
X30238095Y-35745238D01*
X30285714Y-35840476D01*
X30333333Y-36030952D01*
X30333333Y-36173809D01*
X30285714Y-36364285D01*
X30238095Y-36459523D01*
X30142857Y-36554761D01*
X30000000Y-36602380D01*
X29761904Y-36602380D01*
D11*
X30000000Y-46000000D02*
X30500000Y-46000000D01*
X30000000Y-44000000D02*
X30000000Y-46000000D01*
X30500000Y-44000000D02*
X30000000Y-44000000D01*
X38000000Y-44000000D02*
X30500000Y-44000000D01*
X38000000Y-46000000D02*
X38000000Y-44000000D01*
X30500000Y-46000000D02*
X38000000Y-46000000D01*
D10*
X30809523Y-45071428D02*
X31571428Y-45071428D01*
X31190476Y-45452380D02*
X31190476Y-44690476D01*
X32523809Y-44452380D02*
X32047619Y-44452380D01*
X32000000Y-44928571D01*
X32047619Y-44880952D01*
X32142857Y-44833333D01*
X32380952Y-44833333D01*
X32476190Y-44880952D01*
X32523809Y-44928571D01*
X32571428Y-45023809D01*
X32571428Y-45261904D01*
X32523809Y-45357142D01*
X32476190Y-45404761D01*
X32380952Y-45452380D01*
X32142857Y-45452380D01*
X32047619Y-45404761D01*
X32000000Y-45357142D01*
X32857142Y-44452380D02*
X33190476Y-45452380D01*
X33523809Y-44452380D01*
X35142857Y-44500000D02*
X35047619Y-44452380D01*
X34904761Y-44452380D01*
X34761904Y-44500000D01*
X34666666Y-44595238D01*
X34619047Y-44690476D01*
X34571428Y-44880952D01*
X34571428Y-45023809D01*
X34619047Y-45214285D01*
X34666666Y-45309523D01*
X34761904Y-45404761D01*
X34904761Y-45452380D01*
X35000000Y-45452380D01*
X35142857Y-45404761D01*
X35190476Y-45357142D01*
X35190476Y-45023809D01*
X35000000Y-45023809D01*
X35619047Y-45452380D02*
X35619047Y-44452380D01*
X36190476Y-45452380D01*
X36190476Y-44452380D01*
X36666666Y-45452380D02*
X36666666Y-44452380D01*
X36904761Y-44452380D01*
X37047619Y-44500000D01*
X37142857Y-44595238D01*
X37190476Y-44690476D01*
X37238095Y-44880952D01*
X37238095Y-45023809D01*
X37190476Y-45214285D01*
X37142857Y-45309523D01*
X37047619Y-45404761D01*
X36904761Y-45452380D01*
X36666666Y-45452380D01*
D12*
G04 #@! TO.C,C1*
X23500000Y-35850000D02*
X24500000Y-35850000D01*
X24500000Y-34150000D02*
X23500000Y-34150000D01*
G04 #@! TO.C,J1*
X57670000Y-27420000D02*
X59000000Y-27420000D01*
X57670000Y-28750000D02*
X57670000Y-27420000D01*
X60270000Y-27420000D02*
X62870000Y-27420000D01*
X60270000Y-30020000D02*
X60270000Y-27420000D01*
X57670000Y-30020000D02*
X60270000Y-30020000D01*
X62870000Y-27420000D02*
X62870000Y-40240000D01*
X57670000Y-30020000D02*
X57670000Y-40240000D01*
X57670000Y-40240000D02*
X62870000Y-40240000D01*
G04 #@! TO.C,J3*
X18960000Y-45310000D02*
X29120000Y-45310000D01*
X18960000Y-37690000D02*
X18960000Y-45310000D01*
X29120000Y-37690000D02*
X18960000Y-37690000D01*
X29120000Y-45310000D02*
X29120000Y-37690000D01*
X29120000Y-44040000D02*
X18960000Y-44040000D01*
G04 #@! TO.C,U1*
X40750000Y-29220000D02*
X45750000Y-29220000D01*
X42750000Y-42280000D02*
X48750000Y-42280000D01*
G04 #@! TO.C,C3*
X27650000Y-28500000D02*
X27650000Y-29500000D01*
X29350000Y-29500000D02*
X29350000Y-28500000D01*
G04 #@! TO.C,J4*
X23245001Y-26245001D02*
X24575001Y-26245001D01*
X23245001Y-27575001D02*
X23245001Y-26245001D01*
X23245001Y-28845001D02*
X25905001Y-28845001D01*
X25905001Y-28845001D02*
X25905001Y-31445001D01*
X23245001Y-28845001D02*
X23245001Y-31445001D01*
X23245001Y-31445001D02*
X25905001Y-31445001D01*
G04 #@! TO.C,R1*
X19620000Y-29600000D02*
X19620000Y-28400000D01*
X21380000Y-28400000D02*
X21380000Y-29600000D01*
G04 #@! TO.C,J5*
X32670000Y-26170000D02*
X34000000Y-26170000D01*
X32670000Y-27500000D02*
X32670000Y-26170000D01*
X32670000Y-28770000D02*
X35330000Y-28770000D01*
X35330000Y-28770000D02*
X35330000Y-33910000D01*
X32670000Y-28770000D02*
X32670000Y-33910000D01*
X32670000Y-33910000D02*
X35330000Y-33910000D01*
G04 #@! TO.C,C2*
X36290000Y-37980000D02*
X35520000Y-37210000D01*
X36290000Y-37980000D02*
X36290000Y-41790000D01*
X31710000Y-37980000D02*
X32480000Y-37210000D01*
X31710000Y-37980000D02*
X31710000Y-41790000D01*
X32480000Y-37210000D02*
X32880000Y-37210000D01*
X35520000Y-37210000D02*
X35120000Y-37210000D01*
X36290000Y-41790000D02*
X35120000Y-41790000D01*
X31710000Y-41790000D02*
X32880000Y-41790000D01*
G04 #@! TO.C,C1*
D10*
X23833333Y-33607142D02*
X23785714Y-33654761D01*
X23642857Y-33702380D01*
X23547619Y-33702380D01*
X23404761Y-33654761D01*
X23309523Y-33559523D01*
X23261904Y-33464285D01*
X23214285Y-33273809D01*
X23214285Y-33130952D01*
X23261904Y-32940476D01*
X23309523Y-32845238D01*
X23404761Y-32750000D01*
X23547619Y-32702380D01*
X23642857Y-32702380D01*
X23785714Y-32750000D01*
X23833333Y-32797619D01*
X24785714Y-33702380D02*
X24214285Y-33702380D01*
X24500000Y-33702380D02*
X24500000Y-32702380D01*
X24404761Y-32845238D01*
X24309523Y-32940476D01*
X24214285Y-32988095D01*
G04 #@! TO.C,J1*
X59936666Y-25872380D02*
X59936666Y-26586666D01*
X59889047Y-26729523D01*
X59793809Y-26824761D01*
X59650952Y-26872380D01*
X59555714Y-26872380D01*
X60936666Y-26872380D02*
X60365238Y-26872380D01*
X60650952Y-26872380D02*
X60650952Y-25872380D01*
X60555714Y-26015238D01*
X60460476Y-26110476D01*
X60365238Y-26158095D01*
G04 #@! TO.C,J3*
X19166666Y-35952380D02*
X19166666Y-36666666D01*
X19119047Y-36809523D01*
X19023809Y-36904761D01*
X18880952Y-36952380D01*
X18785714Y-36952380D01*
X19547619Y-35952380D02*
X20166666Y-35952380D01*
X19833333Y-36333333D01*
X19976190Y-36333333D01*
X20071428Y-36380952D01*
X20119047Y-36428571D01*
X20166666Y-36523809D01*
X20166666Y-36761904D01*
X20119047Y-36857142D01*
X20071428Y-36904761D01*
X19976190Y-36952380D01*
X19690476Y-36952380D01*
X19595238Y-36904761D01*
X19547619Y-36857142D01*
G04 #@! TO.C,U1*
X41298095Y-27782380D02*
X41298095Y-28591904D01*
X41345714Y-28687142D01*
X41393333Y-28734761D01*
X41488571Y-28782380D01*
X41679047Y-28782380D01*
X41774285Y-28734761D01*
X41821904Y-28687142D01*
X41869523Y-28591904D01*
X41869523Y-27782380D01*
X42869523Y-28782380D02*
X42298095Y-28782380D01*
X42583809Y-28782380D02*
X42583809Y-27782380D01*
X42488571Y-27925238D01*
X42393333Y-28020476D01*
X42298095Y-28068095D01*
G04 #@! TO.C,C3*
X30607142Y-29166666D02*
X30654761Y-29214285D01*
X30702380Y-29357142D01*
X30702380Y-29452380D01*
X30654761Y-29595238D01*
X30559523Y-29690476D01*
X30464285Y-29738095D01*
X30273809Y-29785714D01*
X30130952Y-29785714D01*
X29940476Y-29738095D01*
X29845238Y-29690476D01*
X29750000Y-29595238D01*
X29702380Y-29452380D01*
X29702380Y-29357142D01*
X29750000Y-29214285D01*
X29797619Y-29166666D01*
X29702380Y-28833333D02*
X29702380Y-28214285D01*
X30083333Y-28547619D01*
X30083333Y-28404761D01*
X30130952Y-28309523D01*
X30178571Y-28261904D01*
X30273809Y-28214285D01*
X30511904Y-28214285D01*
X30607142Y-28261904D01*
X30654761Y-28309523D01*
X30702380Y-28404761D01*
X30702380Y-28690476D01*
X30654761Y-28785714D01*
X30607142Y-28833333D01*
G04 #@! TO.C,J4*
X24241667Y-24697381D02*
X24241667Y-25411667D01*
X24194048Y-25554524D01*
X24098810Y-25649762D01*
X23955953Y-25697381D01*
X23860715Y-25697381D01*
X25146429Y-25030715D02*
X25146429Y-25697381D01*
X24908334Y-24649762D02*
X24670239Y-25364048D01*
X25289286Y-25364048D01*
G04 #@! TO.C,R1*
X19252380Y-29166666D02*
X18776190Y-29500000D01*
X19252380Y-29738095D02*
X18252380Y-29738095D01*
X18252380Y-29357142D01*
X18300000Y-29261904D01*
X18347619Y-29214285D01*
X18442857Y-29166666D01*
X18585714Y-29166666D01*
X18680952Y-29214285D01*
X18728571Y-29261904D01*
X18776190Y-29357142D01*
X18776190Y-29738095D01*
X19252380Y-28214285D02*
X19252380Y-28785714D01*
X19252380Y-28500000D02*
X18252380Y-28500000D01*
X18395238Y-28595238D01*
X18490476Y-28690476D01*
X18538095Y-28785714D01*
G04 #@! TO.C,J5*
X33666666Y-24622380D02*
X33666666Y-25336666D01*
X33619047Y-25479523D01*
X33523809Y-25574761D01*
X33380952Y-25622380D01*
X33285714Y-25622380D01*
X34619047Y-24622380D02*
X34142857Y-24622380D01*
X34095238Y-25098571D01*
X34142857Y-25050952D01*
X34238095Y-25003333D01*
X34476190Y-25003333D01*
X34571428Y-25050952D01*
X34619047Y-25098571D01*
X34666666Y-25193809D01*
X34666666Y-25431904D01*
X34619047Y-25527142D01*
X34571428Y-25574761D01*
X34476190Y-25622380D01*
X34238095Y-25622380D01*
X34142857Y-25574761D01*
X34095238Y-25527142D01*
G04 #@! TO.C,C2*
X30817142Y-39666666D02*
X30864761Y-39714285D01*
X30912380Y-39857142D01*
X30912380Y-39952380D01*
X30864761Y-40095238D01*
X30769523Y-40190476D01*
X30674285Y-40238095D01*
X30483809Y-40285714D01*
X30340952Y-40285714D01*
X30150476Y-40238095D01*
X30055238Y-40190476D01*
X29960000Y-40095238D01*
X29912380Y-39952380D01*
X29912380Y-39857142D01*
X29960000Y-39714285D01*
X30007619Y-39666666D01*
X30007619Y-39285714D02*
X29960000Y-39238095D01*
X29912380Y-39142857D01*
X29912380Y-38904761D01*
X29960000Y-38809523D01*
X30007619Y-38761904D01*
X30102857Y-38714285D01*
X30198095Y-38714285D01*
X30340952Y-38761904D01*
X30912380Y-39333333D01*
X30912380Y-38714285D01*
X32061428Y-37110952D02*
X32061428Y-36349047D01*
X32442380Y-36730000D02*
X31680476Y-36730000D01*
G04 #@! TD*
M02*
