G04 #@! TF.GenerationSoftware,KiCad,Pcbnew,(5.0.0)*
G04 #@! TF.CreationDate,2019-09-15T19:40:45+02:00*
G04 #@! TF.ProjectId,hub75shifter,6875623735736869667465722E6B6963,rev?*
G04 #@! TF.SameCoordinates,Original*
G04 #@! TF.FileFunction,Soldermask,Bot*
G04 #@! TF.FilePolarity,Negative*
%FSLAX46Y46*%
G04 Gerber Fmt 4.6, Leading zero omitted, Abs format (unit mm)*
G04 Created by KiCad (PCBNEW (5.0.0)) date 09/15/19 19:40:45*
%MOMM*%
%LPD*%
G01*
G04 APERTURE LIST*
%ADD10C,0.200000*%
%ADD11C,0.150000*%
%ADD12R,1.900000X1.650000*%
%ADD13O,2.100000X2.100000*%
%ADD14R,2.100000X2.100000*%
%ADD15R,2.000000X3.000000*%
%ADD16C,3.400000*%
%ADD17R,3.400000X3.400000*%
G04 APERTURE END LIST*
D10*
X20000000Y-50000000D02*
X70000000Y-50000000D01*
X20000000Y-20000000D02*
X70000000Y-20000000D01*
D11*
X70000000Y-50000000D02*
X70000000Y-20000000D01*
X20000000Y-50000000D02*
X20000000Y-20000000D01*
D12*
G04 #@! TO.C,C3*
X52500000Y-30500000D03*
X50000000Y-30500000D03*
G04 #@! TD*
D13*
G04 #@! TO.C,JHUB75*
X24540000Y-43907500D03*
X22000000Y-43907500D03*
X24540000Y-41367500D03*
X22000000Y-41367500D03*
X24540000Y-38827500D03*
X22000000Y-38827500D03*
X24540000Y-36287500D03*
X22000000Y-36287500D03*
X24540000Y-33747500D03*
X22000000Y-33747500D03*
X24540000Y-31207500D03*
X22000000Y-31207500D03*
X24540000Y-28667500D03*
X22000000Y-28667500D03*
X24540000Y-26127500D03*
D14*
X22000000Y-26127500D03*
G04 #@! TD*
G04 #@! TO.C,JIN1*
X50000000Y-35000000D03*
D13*
X52540000Y-35000000D03*
X50000000Y-37540000D03*
X52540000Y-37540000D03*
X50000000Y-40080000D03*
X52540000Y-40080000D03*
X50000000Y-42620000D03*
X52540000Y-42620000D03*
X50000000Y-45160000D03*
X52540000Y-45160000D03*
G04 #@! TD*
G04 #@! TO.C,JOUT1*
X65540000Y-45160000D03*
X63000000Y-45160000D03*
X65540000Y-42620000D03*
X63000000Y-42620000D03*
X65540000Y-40080000D03*
X63000000Y-40080000D03*
X65540000Y-37540000D03*
X63000000Y-37540000D03*
X65540000Y-35000000D03*
D14*
X63000000Y-35000000D03*
G04 #@! TD*
D13*
G04 #@! TO.C,JSWD1*
X62800000Y-23460000D03*
X62800000Y-26000000D03*
X60260000Y-23460000D03*
X60260000Y-26000000D03*
X57720000Y-23460000D03*
X57720000Y-26000000D03*
X55180000Y-23460000D03*
X55180000Y-26000000D03*
X52640000Y-23460000D03*
D14*
X52640000Y-26000000D03*
G04 #@! TD*
D12*
G04 #@! TO.C,C5*
X63000000Y-30500000D03*
X65500000Y-30500000D03*
G04 #@! TD*
D15*
G04 #@! TO.C,C6*
X57750000Y-30200000D03*
X57750000Y-33800000D03*
G04 #@! TD*
D16*
G04 #@! TO.C,JPWR1*
X34830000Y-45500000D03*
D17*
X29750000Y-45500000D03*
G04 #@! TD*
M02*
