M48
;DRILL file {KiCad (5.0.0)} date 09/15/19 19:40:41
;FORMAT={-:-/ absolute / inch / decimal}
FMAT,2
INCH,TZ
T1C0.0157
T2C0.0394
T3C0.0598
%
G90
G05
M72
T1
X1.1319Y-0.9252
X1.4173Y-1.2992
X1.5157Y-1.2992
X1.5453Y-0.9843
X1.6142Y-0.9843
X1.6535Y-1.7028
X1.6929Y-1.7323
X1.7717Y-1.2697
X1.7717Y-1.4173
X1.7717Y-1.4665
X1.7717Y-1.5157
T2
X2.0724Y-0.9236
X2.0724Y-1.0236
X2.1724Y-0.9236
X2.1724Y-1.0236
X2.2724Y-0.9236
X2.2724Y-1.0236
X2.3724Y-0.9236
X2.3724Y-1.0236
X2.4724Y-0.9236
X2.4724Y-1.0236
X2.4803Y-1.378
X2.4803Y-1.478
X2.4803Y-1.578
X2.4803Y-1.678
X2.4803Y-1.778
X2.5803Y-1.378
X2.5803Y-1.478
X2.5803Y-1.578
X2.5803Y-1.678
X2.5803Y-1.778
X1.9685Y-1.378
X1.9685Y-1.478
X1.9685Y-1.578
X1.9685Y-1.678
X1.9685Y-1.778
X2.0685Y-1.378
X2.0685Y-1.478
X2.0685Y-1.578
X2.0685Y-1.678
X2.0685Y-1.778
X0.8661Y-1.0286
X0.8661Y-1.1286
X0.8661Y-1.2286
X0.8661Y-1.3286
X0.8661Y-1.4286
X0.8661Y-1.5286
X0.8661Y-1.6286
X0.8661Y-1.7286
X0.9661Y-1.0286
X0.9661Y-1.1286
X0.9661Y-1.2286
X0.9661Y-1.3286
X0.9661Y-1.4286
X0.9661Y-1.5286
X0.9661Y-1.6286
X0.9661Y-1.7286
T3
X1.1713Y-1.7913
X1.3713Y-1.7913
T0
M30
